<?xml version="1.0" encoding="utf-8"?>
<!-- Generator: Adobe Illustrator 26.5.0, SVG Export Plug-In . SVG Version: 6.00 Build 0)  -->
<svg version="1.1" id="Calque_1" xmlns="http://www.w3.org/2000/svg" xmlns:xlink="http://www.w3.org/1999/xlink" x="0px" y="0px"
	 viewBox="0 0 953 353" style="enable-background:new 0 0 953 353;" xml:space="preserve">
<style type="text/css">
	.st0{fill:#FFFFFF;}
</style>
<g>
	<path class="st0" d="M82.3,145.1c-12.7,2.2-23.6,2.3-32.7,0.4c-9-1.9-16.3-5-21.8-9.2c-5.5-4.3-9.4-9.3-11.7-15.1
		c-2.3-5.8-3.2-11.6-2.6-17.3c0.6-5.7,2.5-10.9,5.8-15.6c3.3-4.7,7.8-8.1,13.3-10.2c1.7-0.6,2.9-0.4,3.8,0.8c0.9,1.2,1.6,3,2.2,5.3
		c0.6,2.4,1.2,5.1,1.8,8.3c0.6,3.2,1.5,6.4,2.7,9.6c1.2,3.2,2.8,6.3,4.8,9.3c2,3,4.8,5.4,8.2,7.3c3.4,1.9,7.7,3.2,12.9,3.8
		c5.2,0.6,11.5,0.1,18.9-1.4c4-0.9,7.7-1.8,11.1-2.8c1.7-8.8,3.4-17.5,5.1-26.2c1.7-8.6,3.6-16.8,5.7-24.6
		c2.1-7.7,4.5-14.8,7.2-21.3c2.7-6.5,5.9-11.8,9.6-16.1c3.7-4.3,7.9-7.3,12.8-9.1c4.8-1.8,10.4-1.9,16.8-0.4c3.1,0.8,5.7,2,7.8,3.7
		c2.1,1.7,3.8,3.5,5.1,5.4c1.3,1.9,2.2,3.7,2.8,5.4c0.6,1.7,0.9,3,1.1,3.9c1.3,9.4,1,18.3-0.8,26.8c-1.8,8.5-4.9,16.5-9.1,23.9
		c-4.2,7.4-9.4,14.3-15.5,20.6c-6.1,6.3-12.8,11.8-20,16.5c-1.7,6.7-3.6,13.4-5.5,20c-1.9,6.7-4.1,13-6.3,19.2
		c-2.3,6.1-4.8,11.9-7.5,17.4c-2.8,5.5-5.8,10.4-9.2,14.8c6.2,3.5,12.6,7.2,19.3,11.3c6.7,4.1,13.4,8,20.2,11.6
		c6.8,3.7,13.7,6.9,20.6,9.7c6.9,2.8,13.8,4.6,20.6,5.4c6.9,0.8,13.6,0.5,20.2-1.1c6.6-1.6,13-4.8,19.2-9.8c1.9-1.5,3.5-1.8,4.8-0.9
		c1.3,0.9,2,2.6,2.2,5c0.2,2.4-0.3,5.2-1.4,8.6c-1.1,3.4-3,6.7-5.7,10.1c-2.7,3.4-6.3,6.4-10.9,9.2c-4.5,2.8-10.2,4.8-16.9,6.1
		c-8,1.5-15.1,1.5-21.6,0.2c-6.4-1.4-12.4-3.6-18-6.6c-5.6-3.1-10.9-6.7-16-10.9c-5.1-4.2-10.3-8.4-15.6-12.6
		c-5.3-4.2-10.9-8.3-16.7-12.1c-5.9-3.8-12.3-6.8-19.3-9c-5.8,3.9-12.5,6.2-20.1,7c-4.5,0.3-8.5-0.6-12.1-2.8
		c-3.6-2.2-6.2-4.9-7.8-8.1c-1.6-3.3-2.1-6.8-1.3-10.5c0.8-3.7,3.3-6.9,7.7-9.6c4-2.5,8.5-3.6,13.5-3.3c4.9,0.3,10.2,1.6,15.8,3.7
		c3.2-6,6-13.1,8.4-21.1c2.4-8,4.5-16.6,6.4-25.7c-2.1,0.6-4.1,1.1-6.1,1.6C86.5,144.3,84.4,144.8,82.3,145.1L82.3,145.1z
		 M157.7,38.8c-2.5,2.8-4.8,6.2-6.8,10.3c-2.1,4.1-4,8.6-5.8,13.6c-1.8,5-3.5,10.4-5.2,16.3c-1.6,5.9-3.2,11.9-4.8,18.2
		c6.7-6.6,11.8-13.5,15.3-20.8c3.5-7.3,6-13.9,7.5-19.8c1.4-5.9,2-10.6,1.7-14C159.3,39,158.6,37.8,157.7,38.8z"/>
	<path class="st0" d="M180.3,165.3c-2.3,1.4-4.5,2.2-6.6,2.5c-2.1,0.3-3.9,0.2-5.5-0.5l0,0.2c-0.2,2.7,0,5.3,0.6,7.7
		c0.6,2.5,2.2,3.9,4.8,4.3c1.9,0.2,4.4-0.9,7.5-3.3c3.1-2.4,6.4-5.5,10-9.4c3.6-3.8,7.3-8.1,11.1-12.9c3.8-4.8,7.4-9.4,10.7-13.9
		c3.3-4.5,6.3-8.6,9-12.3c2.6-3.7,4.6-6.5,6-8.2c0.5-0.6,1.1-0.9,1.8-1c0.7-0.1,1.3,0,1.9,0.2c0.6,0.2,1,0.6,1.3,1
		c0.3,0.5,0.2,0.9-0.1,1.3c-0.8,1.4-2.3,4.1-4.6,8.3c-2.3,4.1-5,9-8.4,14.5c-3.3,5.5-7,11.3-11.1,17.4c-4.1,6-8.4,11.7-13,16.9
		c-4.6,5.2-9.2,9.6-13.9,13.3c-4.7,3.6-9.4,5.6-14,6.1c-6.3,0.7-11.3,0-15.1-2c-3.8-2.1-6.5-5-8.1-8.9c-1.6-3.8-2.3-8.3-2-13.5
		c0.3-5.1,1.3-10.5,3-16.1c1.7-5.6,4.2-11.1,7.3-16.6c3.1-5.4,6.7-10.4,10.7-14.9c4-4.5,8.2-8.2,12.8-11.2c4.6-3,9.3-4.7,14.3-5.2
		c3.5-0.3,6.2,0.3,8.1,1.7c1.9,1.4,3.4,3.2,4.3,5.5c1,2.2,1.5,4.6,1.6,7.1c0.1,2.5,0.1,4.6,0,6.2c-0.6,3.5-1.6,6.9-3,10.4
		c-1.4,3.4-3.2,6.7-5.3,9.9c-2.1,3.2-4.5,6-7.3,8.7C186.3,161,183.4,163.3,180.3,165.3L180.3,165.3z M191.7,124.6
		c-0.8-0.3-2.2,0.6-4.3,2.4c-2,1.9-4.3,4.5-6.7,7.7c-2.4,3.3-4.7,7-6.9,11.3c-2.2,4.3-3.7,8.7-4.7,13.1c0.3,0.3,0.9,0.3,1.9-0.1
		c2.4-0.9,4.6-2.5,6.8-4.9c2.2-2.4,4.1-5.1,5.9-8c1.8-2.9,3.2-5.8,4.4-8.6c1.2-2.8,2.1-5.1,2.7-6.8c0.5-1.5,0.9-2.6,1.1-3.4
		c0.2-0.8,0.3-1.4,0.3-1.7c0-0.4-0.1-0.6-0.2-0.7C191.9,124.9,191.8,124.8,191.7,124.6z"/>
	<path class="st0" d="M325.2,89.8l0.4,0.1c0.7-0.4,2-0.4,4,0c2,0.3,3.9,1,5.7,2.2c1.8,1.1,3.2,2.6,4.2,4.6c1,1.9,0.9,4.3-0.2,7.1
		c-1.3,2.3-2.3,4.4-3.2,6.3c-0.8,1.9-1.6,3.8-2.4,5.6c-0.7,1.9-1.5,3.9-2.4,6c-0.9,2.1-1.9,4.7-3.1,7.6c-0.1,0.4-0.4,1.6-1,3.7
		c-0.6,2.1-1.2,4.2-1.8,6.3c-0.5,2.2-0.8,4-0.9,5.4c0,1.5,0.6,1.8,1.8,0.9c0.5-0.3,1.1-0.9,2-1.7c0.9-0.8,1.8-1.8,2.9-2.8
		c1-1,2.1-2.1,3.1-3.2c1-1.1,1.9-2.1,2.7-3c3.4-4,6.1-7.4,8.2-10.1c2-2.7,3.9-5.3,5.6-7.7c1.7-2.4,3.6-5,5.5-7.7
		c2-2.8,4.6-6.3,7.8-10.5c0.5-0.6,1.2-1,1.9-1.1c0.7-0.2,1.4-0.1,2,0.2c0.6,0.3,1.1,0.7,1.4,1.2c0.3,0.5,0.3,1.2-0.1,2
		c-3,6.5-6.4,13.2-10.1,19.9c-3.7,6.8-7.7,13.3-12,19.7c-1.9,2.9-3.9,6.3-6,10c-2.1,3.7-4.4,7.3-6.9,10.8c-2.6,3.5-5.4,6.5-8.6,9.1
		c-3.2,2.6-6.9,4-11.1,4.4c-4.2,0.4-7.6-0.6-10.1-2.9c-2.5-2.3-4.2-5.6-5.1-9.7c-0.6-2.9-0.7-6.1-0.4-9.6c0.3-3.4,0.9-7,1.7-10.6
		c0.8-3.6,1.8-7.3,3-10.9c1.1-3.6,2.3-7.1,3.4-10.2l1-3.4c-3.4,4.3-6.4,9.2-9.2,14.6c-2.8,5.5-5.4,10.9-7.8,16.4
		c-2.4,5.5-4.8,10.7-7.1,15.6c-2.3,4.9-4.6,8.9-6.9,11.9c-1.8,2.9-3.9,4.7-6.4,5.3c-2.4,0.6-4.6,0.5-6.6-0.3c-2-0.8-3.6-2.2-4.9-4.3
		c-1.3-2-1.6-4.3-0.9-6.7c3.4-15,6.8-28.1,10.2-39.2c3.4-11.2,6.8-21.4,10.1-30.7c1.2-2.6,3.2-4.5,5.9-5.7c2.7-1.2,5.3-1.7,7.8-1.5
		c2.5,0.3,4.5,1.2,6.2,2.8c1.6,1.6,2.1,4,1.4,7c-1.1,2.8-2,4.9-2.6,6.3c-0.7,1.4-1.3,2.6-2,3.7c-0.6,1.1-1.3,2.4-1.9,3.9
		c-0.6,1.5-1.3,3.7-2.1,6.6c2.4-4.6,4.9-9,7.3-13c2.4-4,5-7.5,7.6-10.5s5.5-5.3,8.6-7.1C318,90.9,321.4,90,325.2,89.8L325.2,89.8z"
		/>
	<path class="st0" d="M384.2,134.2c-2.3,1.4-4.5,2.2-6.6,2.5c-2.1,0.3-3.9,0.2-5.5-0.5l0,0.2c-0.2,2.7,0,5.3,0.6,7.7
		c0.6,2.5,2.2,3.9,4.8,4.3c1.9,0.2,4.4-0.9,7.5-3.3c3.1-2.4,6.4-5.5,10-9.4c3.6-3.8,7.3-8.1,11-12.9c3.8-4.8,7.4-9.4,10.7-13.9
		c3.3-4.5,6.3-8.6,9-12.3c2.6-3.7,4.6-6.5,6-8.2c0.5-0.6,1.1-0.9,1.8-1c0.7-0.1,1.3,0,1.9,0.2c0.6,0.2,1,0.6,1.3,1
		c0.3,0.5,0.2,0.9-0.1,1.3c-0.8,1.4-2.3,4.1-4.6,8.3c-2.3,4.1-5,9-8.4,14.5c-3.3,5.5-7,11.3-11.1,17.4c-4.1,6-8.4,11.7-13,16.9
		c-4.6,5.2-9.2,9.6-13.9,13.3c-4.7,3.6-9.4,5.6-14,6.1c-6.3,0.7-11.3,0-15.1-2c-3.8-2.1-6.5-5-8.1-8.9c-1.6-3.8-2.3-8.3-2-13.5
		c0.3-5.1,1.3-10.5,3-16.1c1.7-5.6,4.2-11.1,7.3-16.6c3.1-5.4,6.7-10.4,10.6-14.9c4-4.5,8.2-8.2,12.8-11.2c4.6-3,9.3-4.7,14.3-5.2
		c3.5-0.3,6.2,0.3,8.1,1.7c1.9,1.4,3.4,3.2,4.3,5.5c1,2.2,1.5,4.6,1.6,7.1c0.1,2.5,0.1,4.6,0,6.2c-0.6,3.5-1.6,6.9-3,10.4
		c-1.4,3.4-3.2,6.7-5.3,9.9c-2.1,3.2-4.5,6-7.3,8.7C390.2,129.9,387.3,132.2,384.2,134.2L384.2,134.2z M395.5,93.6
		c-0.8-0.3-2.2,0.6-4.3,2.4c-2,1.9-4.3,4.5-6.7,7.7c-2.4,3.3-4.7,7-6.9,11.3c-2.2,4.3-3.7,8.7-4.7,13.1c0.3,0.3,0.9,0.3,1.9-0.1
		c2.4-0.9,4.6-2.5,6.8-4.9c2.2-2.4,4.1-5.1,5.9-8c1.8-2.9,3.2-5.8,4.4-8.6c1.2-2.8,2.1-5.1,2.7-6.8c0.5-1.5,0.9-2.6,1.1-3.4
		c0.2-0.8,0.3-1.4,0.3-1.7c0-0.4-0.1-0.6-0.2-0.7C395.8,93.8,395.7,93.7,395.5,93.6L395.5,93.6z"/>
	<path class="st0" d="M421.5,159.1c-0.4,0.1-0.7,0-1-0.2c-1.1-0.3-2.1-1.1-3-2.2c-0.9-1.1-1.6-2.4-2.1-3.9c-0.5-1.5-0.7-3.2-0.7-5
		c0-1.8,0.6-3.6,1.6-5.2c2.5-4.9,5.8-9.7,9.7-14.5c3.9-4.7,8.5-9.6,13.6-14.5c5.2-4.9,10.9-10.2,17.3-15.7
		c6.4-5.5,13.4-11.5,20.9-18.1c-4.4,1-8.4,2.3-12.1,3.6c-3.7,1.4-7.3,2.9-10.9,4.5c-3.6,1.6-7.3,3.3-11.1,5.2
		c-3.8,1.8-8.1,3.7-12.8,5.7c-2.2,0.5-3.7-0.4-4.5-2.5c-0.8-2.1-1.1-4.6-0.9-7.5c0.3-2.9,1-5.7,2.3-8.4c1.3-2.7,3-4.4,5.2-5.1
		c6.2-2.1,12-3.7,17.5-4.9c5.4-1.2,10.6-2.1,15.7-2.8c5.1-0.6,10.1-1,15.2-1c5.1,0,10.5,0.1,16.2,0.4l0.2,0.2l1.7-0.3
		c1.1,0,2.3,0.3,3.6,1.1c1.2,0.8,2.2,1.8,3,3c0.8,1.3,1.2,2.7,1.2,4.2c0,1.5-0.5,3-1.7,4.4c-10,8.7-19.6,17.3-28.7,25.7
		c-9.2,8.4-17.8,16.7-26,24.9c7.3-3.5,14.5-6.4,21.8-8.8c7.2-2.4,14.6-3.5,22.2-3.6c2.4,0.7,3.7,2.2,3.9,4.8
		c0.3,2.5-0.1,5.2-1.2,8.1c-1.1,2.9-2.6,5.6-4.6,8.1c-2,2.5-4.1,4-6.3,4.5c-5.1-0.1-10.1,0.3-15.2,1.2c-5.1,0.9-10.2,2.1-15.5,3.6
		c-5.2,1.5-10.6,3.2-16.1,5.1c-5.5,1.9-11.1,3.7-16.9,5.5C422.5,158.8,422,159,421.5,159.1L421.5,159.1z"/>
	<path class="st0" d="M641.4,3.3c0.4-0.6,1.8-0.8,4.2-0.6c2.4,0.1,4.9,0.7,7.3,1.8c2.5,1.1,4.5,2.6,6.2,4.5c1.6,2,1.8,4.4,0.6,7.4
		c-2.1,4.4-4.7,9.6-7.7,15.8c-3,6.2-6,12.5-9,18.9c-3,6.4-5.8,12.6-8.4,18.4c-2.6,5.8-4.6,10.5-6,14.1c-0.1,0.3-0.3,0.9-0.7,2
		c-0.4,1.1-0.8,2.3-1.3,3.7c-0.5,1.4-1,2.8-1.4,4.3c-0.5,1.5-0.8,2.8-1,3.9c-0.2,1.2-0.2,2,0,2.5c0.2,0.5,0.7,0.6,1.5,0.1
		c0.5-0.3,1.1-0.9,2-1.7c0.9-0.8,1.8-1.8,2.9-2.8c1-1,2.1-2.1,3.1-3.2c1-1.1,1.9-2.1,2.7-3c3.4-4,6.1-7.4,8.2-10.1
		c2-2.7,3.9-5.3,5.7-7.7c1.8-2.4,3.6-5,5.6-7.7c2-2.8,4.6-6.3,7.8-10.5c0.4-0.6,1-0.9,1.7-1.1c0.7-0.2,1.4-0.1,2,0.2
		c0.6,0.3,1.1,0.7,1.4,1.2c0.3,0.5,0.3,1.2-0.1,2c-2.9,6.5-6.2,13.1-10,19.9c-3.7,6.8-7.8,13.4-12.1,19.7c-1.8,2.9-3.8,6.2-5.8,10
		c-2.1,3.7-4.4,7.3-6.9,10.8c-2.6,3.5-5.4,6.5-8.6,9.1c-3.2,2.6-6.9,4-11.1,4.4c-4.3,0.4-7.8-0.5-10.2-2.9c-2.5-2.3-4.2-5.6-5.1-9.7
		c-0.5-2.2-0.8-4.5-1-7c-0.2-2.5-0.2-5.1,0-7.7c-1.7,3.7-3.6,7.4-5.6,11.1c-2,3.8-4.1,7.2-6.4,10.2c-2.2,3.1-4.6,5.6-7.1,7.7
		c-2.5,2.1-5.1,3.3-7.8,3.7c-3.2,0.5-5.9,0.2-8.2-0.9c-2.3-1.1-4.2-2.7-5.8-4.7c-1.6-2-2.7-4.4-3.5-7c-0.8-2.6-1.3-5.2-1.5-7.7
		c-0.4-4.5,0-9.4,1.2-14.9c1.2-5.5,3-10.8,5.4-16.1c2.3-5.3,5.1-10.2,8.2-14.9c3.1-4.7,6.5-8.6,10-11.6c2-1.8,4.6-3.7,7.9-5.6
		c3.3-1.9,6.7-3.1,10.3-3.7c3.6-0.6,6.9-0.3,10.1,1c3.2,1.3,5.7,4.2,7.5,8.7c2.1-4.6,4.3-9.4,6.6-14.5c2.3-5.1,4.7-10.1,7.2-15
		c2.5-4.9,5-9.5,7.5-13.7C636.5,10,638.9,6.3,641.4,3.3L641.4,3.3z M606.4,71.3l1.3-2.7c0-0.2,0-0.5,0.1-0.8c1-2.7,0.9-4.6-0.1-5.8
		c-1.1-1.2-2.7-1.7-4.8-1.5c-2,0.3-4.2,1.8-6.6,4.5c-2.4,2.7-4.8,6-7.3,9.9c-2.4,3.9-4.7,8-6.9,12.5c-2.2,4.4-4,8.5-5.5,12.3
		c-1.5,3.8-2.5,6.8-3.1,9.3c-0.6,2.4-0.4,3.6,0.4,3.4c1.1-0.2,2.9-1.4,5.3-3.7c2.4-2.3,5.1-5.4,8-9.2c2.9-3.8,6.1-8.1,9.3-12.9
		c3.3-4.8,6.4-9.8,9.5-14.7L606.4,71.3L606.4,71.3z"/>
	<path class="st0" d="M721.5,30.5c0.4-0.4,1.7-0.6,3.9-0.5c2.2,0.1,4.3,0.6,6.4,1.6c2.1,0.9,3.8,2.4,5.1,4.2
		c1.3,1.9,1.3,4.3,0.2,7.2c-1.3,2.3-2.5,4.5-3.6,6.4c-1.1,1.9-2.1,3.9-3.2,5.8c-1,1.9-2.1,4-3.1,6.1c-1.1,2.2-2.2,4.7-3.4,7.7
		c-0.1,0.3-0.3,0.9-0.7,2c-0.4,1.1-0.8,2.3-1.3,3.7c-0.5,1.4-1,2.8-1.4,4.3c-0.5,1.5-0.8,2.8-1,3.9c-0.2,1.2-0.2,2,0,2.5
		c0.2,0.5,0.7,0.6,1.5,0.1c0.4-0.3,1.1-0.9,2-1.7c0.9-0.8,1.8-1.8,2.9-2.8c1-1,2.1-2.1,3.1-3.2c1-1.1,1.9-2.1,2.7-3
		c3.4-4,6.1-7.4,8.2-10.1c2-2.7,4-5.3,5.7-7.7c1.8-2.4,3.6-5,5.6-7.7c2-2.8,4.6-6.3,7.8-10.5c1.1-1.3,2.3-1.6,3.8-1
		c1.5,0.7,1.9,1.7,1.2,3.2c-2.9,6.5-6.2,13.1-9.9,19.9c-3.7,6.8-7.7,13.3-12,19.7c-1.9,2.9-3.9,6.3-6,10s-4.4,7.3-6.9,10.8
		c-2.6,3.5-5.4,6.5-8.6,9.1c-3.2,2.6-6.9,4-11.1,4.4c-4.3,0.4-7.8-0.5-10.2-2.9c-2.5-2.3-4.2-5.6-5.1-9.7c-0.8-4.7-1-10-0.4-16
		c-1.8,3.8-3.7,7.6-5.7,11.5c-2,3.9-4.1,7.4-6.4,10.6c-2.3,3.2-4.7,5.8-7.3,8c-2.6,2.2-5.3,3.4-8.1,3.9c-3.2,0.5-5.9,0.2-8.2-0.9
		c-2.3-1.1-4.2-2.7-5.8-4.7c-1.6-2-2.7-4.4-3.5-7c-0.8-2.6-1.3-5.2-1.5-7.7c-0.4-4.5,0-9.4,1.2-14.9c1.2-5.5,3-10.8,5.4-16.1
		c2.3-5.3,5.1-10.2,8.3-15c3.2-4.7,6.5-8.6,9.9-11.6c2.1-1.8,4.9-3.7,8.3-5.7c3.4-2,7-3.2,10.6-3.8c3.7-0.6,7.1-0.1,10.3,1.4
		c3.2,1.5,5.6,4.8,7.3,9.8l0.1,0.4C711.8,39.7,716.2,35,721.5,30.5z M669.1,97.8c1.1-0.2,2.8-1.4,5.1-3.6c2.3-2.2,4.9-5.2,7.8-8.8
		c2.9-3.7,5.9-7.8,9.1-12.4c3.2-4.6,6.3-9.5,9.3-14.4l2.9-5.9c0.6-2.4,0.4-4.1-0.7-5.2c-1.1-1.1-2.6-1.6-4.5-1.4
		c-2,0.3-4.2,1.8-6.6,4.5c-2.4,2.7-4.9,6-7.4,9.9c-2.5,3.9-4.8,8.1-7,12.5c-2.2,4.4-4,8.5-5.5,12.3c-1.5,3.8-2.5,6.8-3.1,9.3
		C668.1,96.8,668.3,97.9,669.1,97.8L669.1,97.8z"/>
	<path class="st0" d="M807.6,16.3l0.4,0.1c0.7-0.4,2-0.4,4,0c2,0.3,3.9,1,5.7,2.2c1.8,1.1,3.2,2.6,4.2,4.6c1,1.9,0.9,4.3-0.1,7.1
		c-1.3,2.3-2.3,4.4-3.2,6.3c-0.8,1.9-1.6,3.8-2.4,5.6c-0.7,1.9-1.5,3.9-2.4,6c-0.9,2.1-1.9,4.7-3.1,7.6c-0.1,0.4-0.4,1.6-1.1,3.7
		c-0.6,2.1-1.2,4.2-1.8,6.3c-0.6,2.2-0.8,4-0.9,5.4c0,1.5,0.6,1.8,1.8,0.9c0.5-0.3,1.1-0.9,2-1.7c0.9-0.8,1.8-1.8,2.9-2.8
		c1-1,2.1-2.1,3.1-3.2c1-1.1,1.9-2.1,2.7-3c3.4-4,6.1-7.4,8.2-10.1c2-2.7,3.9-5.3,5.6-7.7c1.7-2.4,3.5-5,5.5-7.7
		c2-2.8,4.6-6.3,7.8-10.5c0.5-0.6,1.2-1,1.9-1.1c0.7-0.2,1.4-0.1,2,0.2c0.6,0.3,1.1,0.7,1.4,1.2c0.3,0.5,0.3,1.2-0.1,2
		c-3,6.5-6.4,13.2-10.1,19.9c-3.7,6.8-7.7,13.3-12,19.7c-1.9,2.9-3.9,6.3-6,10c-2.1,3.7-4.4,7.3-6.9,10.8c-2.6,3.5-5.4,6.5-8.6,9.1
		c-3.2,2.6-6.9,4-11.1,4.4c-4.2,0.4-7.6-0.6-10.1-2.9c-2.5-2.3-4.2-5.6-5.1-9.7c-0.6-2.9-0.7-6.1-0.4-9.6c0.3-3.4,0.9-7,1.7-10.6
		c0.8-3.6,1.8-7.3,3-10.9c1.1-3.6,2.3-7.1,3.4-10.2l1-3.4c-3.4,4.3-6.4,9.2-9.2,14.6c-2.8,5.5-5.4,10.9-7.8,16.4
		c-2.4,5.5-4.8,10.7-7.1,15.6c-2.3,4.9-4.6,8.9-6.9,11.9c-1.8,2.9-3.9,4.7-6.4,5.3c-2.4,0.6-4.6,0.5-6.7-0.3c-2-0.8-3.6-2.2-4.9-4.3
		c-1.3-2-1.6-4.3-0.9-6.7c3.4-15,6.8-28.1,10.2-39.2c3.4-11.2,6.8-21.4,10.1-30.7c1.2-2.6,3.2-4.5,5.9-5.7c2.7-1.2,5.3-1.7,7.8-1.5
		c2.5,0.3,4.5,1.2,6.2,2.8c1.6,1.6,2.1,4,1.4,7c-1.1,2.8-2,4.9-2.6,6.3c-0.7,1.4-1.3,2.6-2,3.7c-0.6,1.1-1.3,2.4-1.9,3.9
		c-0.6,1.5-1.3,3.7-2.1,6.6c2.4-4.6,4.9-9,7.3-13c2.4-4,5-7.5,7.6-10.5c2.7-3,5.5-5.3,8.6-7.1C800.5,17.5,803.9,16.5,807.6,16.3
		L807.6,16.3z"/>
	<path class="st0" d="M885.1,17.5c-0.1,2-0.6,3.7-1.6,4.9c-1,1.2-2,2-3.1,2.5c-1.1,0.4-2,0.4-2.9,0c-0.9-0.4-1.3-1.4-1.3-2.9
		c0.6-0.7,0.9-1.4,0.8-2.1c-0.1-0.7-0.4-1.3-0.9-1.7c-0.5-0.5-1.2-0.8-2-0.9c-0.8-0.1-1.6-0.1-2.3,0.2c-2,0.9-3.3,2.5-4,4.7
		c-0.7,2.2-1.1,4.2-1.1,6.1c0,1.5,0.5,3.4,1.5,5.5c1,2.2,2.2,4.5,3.6,6.9c4.4-3.6,8.7-7,12.9-10.3c4.2-3.3,8.1-6.3,11.6-9.1
		c3.5-2.8,6.6-5.2,9.2-7.3c2.6-2,4.4-3.6,5.5-4.8c1.3-0.7,2.5-0.6,3.6,0.3c1.1,0.9,1.3,2,0.5,3.2c-5.4,6.5-11.4,13-18.1,19.5
		c-6.6,6.5-12.9,12.8-18.9,19c2.1,3.8,3.5,7.2,4.2,9.9c1,5.9-0.1,11.6-3.4,17.1s-8.3,10.3-15,14.2c-4.8,2.6-9.1,4.1-12.9,4.6
		c-3.8,0.5-7.1,0.2-9.9-0.8c-2.8-1-5-2.4-6.7-4.3c-1.7-1.9-2.7-3.9-3.2-5.9c-0.2-1.5,0.1-3.2,1-5.2c0.9-2,2.3-4.2,4.2-6.6
		c1.9-2.4,4.2-4.9,6.8-7.6c2.6-2.7,5.4-5.5,8.5-8.4c-2.4-4.4-4.6-9.1-6.4-14.1c-1.8-5-2.4-9.8-1.7-14.5c0.2-1.3,0.9-3.1,2.3-5.5
		c1.3-2.4,3.1-4.8,5.4-7.3c2.3-2.5,4.9-4.7,8-6.8c3.1-2,6.5-3.5,10.1-4.3c2.1-0.3,4.1-0.4,6.2-0.4c2,0.1,3.8,0.6,5.3,1.5
		c1.5,0.9,2.7,2.2,3.5,4C885,12.4,885.3,14.7,885.1,17.5L885.1,17.5z M860.5,71.1c-2.8,3.2-5.2,5.6-7.2,7.3c-2,1.7-2.6,2.9-1.9,3.7
		c1.3,1.4,2.9,2.1,4.7,1.9c1.8-0.1,3.3-0.8,4.6-1.9c1.3-1.1,2.1-2.6,2.4-4.5c0.3-1.9-0.3-3.8-2-5.8L860.5,71.1z"/>
	<path class="st0" d="M277.5,290.8c-0.5,0.3-0.8,0.5-1.1,0.5c-1.1,2.8-2,5.3-2.7,7.4c-0.7,2.1-1.2,3.8-1.7,5.2
		c-0.4,1.6-0.8,3.3-1.2,5.2c-0.4,1.9-0.7,3.7-0.8,5.4c-0.1,1.7,0,3.2,0.3,4.5c0.3,1.3,1.1,1.9,2.2,2c2.4,0.1,5.1-0.6,8.1-2.4
		c3-1.7,6.1-4,9.3-6.8c3.2-2.8,6.3-6,9.4-9.6c3.1-3.6,6-7.2,8.8-10.8c2.8-3.6,5.3-7,7.7-10.3c2.3-3.3,4.2-6.1,5.6-8.3
		c0.5-0.6,1.2-1,1.9-1.1c0.7-0.2,1.4-0.1,2,0.2c0.6,0.3,1.1,0.7,1.4,1.3c0.3,0.6,0.4,1.3,0.1,2.1c-1.6,3.4-3.8,7.6-6.4,12.5
		c-2.6,4.9-5.7,10.1-9.1,15.5c-3.4,5.4-7.1,10.8-11.1,16.2c-4,5.4-8.2,10.3-12.6,14.8c-4.4,4.4-8.8,8.1-13.4,11.1
		c-4.6,3-9.1,4.7-13.6,5.1c-4.2,0.4-8-0.4-11.3-2.3c-3.3-1.9-5.4-5.1-6.3-9.3c-0.9-4.1-0.8-9.9,0.2-17.3c1-7.4,2.8-15.5,5.3-24.3
		c2.5-8.8,5.7-17.9,9.5-27.3c3.9-9.4,8.1-18.2,12.8-26.3c4.7-8.1,9.7-15.2,15.2-21.3c5.4-6,11-10.1,16.7-12.3
		c5.2-1.9,9.5-2.4,12.7-1.4c3.2,1,5.6,3,7,6c1.4,3,2,6.8,1.7,11.3c-0.2,4.6-1.2,9.4-2.9,14.6c-1.7,5.2-3.9,10.4-6.7,15.8
		c-2.8,5.4-6.1,10.4-10,15c-3.8,4.6-8.1,8.7-12.7,12.1C287.4,286.9,282.6,289.4,277.5,290.8L277.5,290.8z M308.6,230.9
		c-2.4,2.4-4.9,5.5-7.4,9.4c-2.6,3.9-5.1,8.2-7.6,12.9c-2.5,4.7-4.9,9.5-7.1,14.5c-2.3,5-4.4,9.8-6.3,14.4c4.9-3,9.3-6.6,13.1-10.8
		c3.8-4.2,6.9-8.6,9.3-13.2c2.4-4.6,4.2-9.3,5.2-14C308.8,239.3,309.1,235,308.6,230.9z"/>
	<path class="st0" d="M342.3,307.7c-2.3,1.4-4.5,2.2-6.6,2.5c-2.1,0.3-3.9,0.2-5.5-0.5l0,0.2c-0.2,2.7,0,5.3,0.6,7.7
		s2.2,3.9,4.8,4.3c1.9,0.2,4.4-0.9,7.5-3.3c3.1-2.4,6.4-5.5,10-9.4c3.6-3.8,7.3-8.1,11-12.9c3.8-4.8,7.4-9.4,10.7-13.9
		c3.3-4.5,6.3-8.6,9-12.3c2.6-3.7,4.6-6.5,6-8.2c0.5-0.6,1.1-0.9,1.8-1c0.7-0.1,1.3,0,1.9,0.2c0.6,0.2,1,0.6,1.3,1
		c0.3,0.5,0.2,0.9-0.1,1.3c-0.8,1.4-2.3,4.1-4.6,8.3c-2.3,4.1-5,9-8.4,14.5c-3.3,5.5-7,11.3-11.1,17.4c-4.1,6-8.4,11.7-13,16.9
		c-4.6,5.2-9.2,9.6-13.9,13.3c-4.7,3.6-9.4,5.6-14,6.1c-6.3,0.7-11.3,0-15.1-2c-3.8-2.1-6.5-5-8.1-8.9c-1.6-3.8-2.3-8.3-2-13.5
		c0.3-5.1,1.3-10.5,3-16.1c1.7-5.6,4.2-11.1,7.3-16.6c3.1-5.4,6.7-10.4,10.6-14.9c4-4.5,8.2-8.2,12.8-11.2c4.6-3,9.3-4.7,14.3-5.2
		c3.5-0.3,6.2,0.3,8.1,1.7c1.9,1.4,3.4,3.2,4.3,5.5c1,2.2,1.5,4.6,1.7,7.1c0.1,2.5,0.1,4.6,0,6.2c-0.6,3.5-1.6,6.9-3,10.4
		c-1.4,3.4-3.2,6.7-5.3,9.9c-2.1,3.2-4.5,6-7.3,8.7C348.3,303.4,345.4,305.7,342.3,307.7L342.3,307.7z M353.7,267.1
		c-0.8-0.3-2.2,0.6-4.3,2.4c-2,1.9-4.3,4.5-6.7,7.7c-2.4,3.3-4.7,7-6.9,11.3c-2.2,4.3-3.7,8.7-4.7,13.1c0.3,0.3,0.9,0.3,1.9-0.1
		c2.4-0.9,4.6-2.5,6.8-4.9c2.2-2.4,4.1-5.1,5.9-8c1.8-2.9,3.2-5.8,4.4-8.6c1.2-2.8,2.1-5.1,2.7-6.8c0.5-1.5,0.9-2.6,1.1-3.4
		c0.2-0.8,0.3-1.4,0.3-1.7c0-0.4-0.1-0.6-0.2-0.7C354,267.3,353.9,267.2,353.7,267.1z"/>
	<path class="st0" d="M428.3,254.2c-0.1,2-0.6,3.7-1.6,4.9c-1,1.2-2,2-3.1,2.5c-1.1,0.4-2,0.4-2.9,0s-1.3-1.4-1.3-2.9
		c0.6-0.7,0.9-1.4,0.8-2.1c-0.1-0.7-0.4-1.3-0.9-1.8c-0.5-0.5-1.2-0.8-2-0.9c-0.8-0.1-1.6-0.1-2.3,0.2c-2,0.9-3.3,2.5-4,4.7
		c-0.7,2.2-1.1,4.2-1.1,6.1c0,1.5,0.5,3.4,1.5,5.5c1,2.2,2.2,4.5,3.6,6.9c4.4-3.6,8.7-7,12.9-10.3c4.2-3.3,8.1-6.3,11.6-9.1
		c3.5-2.8,6.6-5.2,9.2-7.3c2.6-2,4.4-3.6,5.5-4.8c1.3-0.7,2.5-0.6,3.6,0.3c1.1,0.9,1.3,2,0.5,3.2c-5.4,6.5-11.4,13-18.1,19.5
		c-6.6,6.5-12.9,12.8-18.9,19c2.1,3.8,3.5,7.2,4.2,9.9c1,5.9-0.1,11.6-3.4,17.1c-3.3,5.5-8.3,10.3-15,14.2
		c-4.8,2.6-9.1,4.1-12.9,4.6c-3.8,0.5-7.1,0.2-9.9-0.8c-2.8-1-5-2.4-6.7-4.3c-1.7-1.9-2.7-3.9-3.2-5.9c-0.2-1.5,0.1-3.2,1-5.2
		c0.9-2,2.3-4.2,4.2-6.6c1.9-2.4,4.2-4.9,6.8-7.6c2.6-2.7,5.4-5.5,8.5-8.4c-2.4-4.4-4.6-9.1-6.4-14.1c-1.8-5-2.4-9.8-1.7-14.5
		c0.2-1.3,0.9-3.1,2.3-5.5c1.3-2.4,3.1-4.8,5.4-7.3c2.3-2.5,4.9-4.7,8-6.8c3.1-2,6.5-3.5,10.1-4.3c2.1-0.3,4.1-0.4,6.2-0.4
		c2,0.1,3.8,0.6,5.3,1.5c1.5,0.9,2.7,2.2,3.5,4C428.2,249.1,428.5,251.4,428.3,254.2L428.3,254.2z M403.7,307.8
		c-2.8,3.2-5.2,5.6-7.2,7.3c-2,1.7-2.6,2.9-1.9,3.7c1.3,1.4,2.9,2.1,4.7,1.9c1.8-0.1,3.3-0.8,4.6-1.9c1.3-1.1,2.1-2.6,2.4-4.5
		c0.3-1.9-0.3-3.8-2-5.8L403.7,307.8z"/>
	<path class="st0" d="M516.4,254.4c-0.5,0.3-0.8,0.5-1,0.5c-1.1,2.8-2,5.3-2.7,7.4c-0.7,2.1-1.2,3.8-1.7,5.2
		c-0.4,1.6-0.8,3.3-1.2,5.2c-0.4,1.9-0.7,3.7-0.8,5.4c-0.1,1.7,0,3.2,0.3,4.5c0.3,1.3,1.1,1.9,2.2,2c2.4,0.1,5.1-0.6,8.1-2.4
		c3-1.7,6.1-4,9.3-6.8c3.2-2.8,6.3-6,9.4-9.6c3.1-3.6,6-7.2,8.8-10.8c2.8-3.6,5.3-7,7.7-10.3c2.3-3.3,4.2-6.1,5.6-8.3
		c0.5-0.6,1.2-1,1.9-1.1c0.7-0.2,1.4-0.1,2,0.2c0.6,0.3,1.1,0.7,1.4,1.3c0.3,0.6,0.4,1.3,0.1,2.1c-1.6,3.4-3.8,7.6-6.4,12.5
		c-2.6,4.9-5.7,10.1-9.1,15.5c-3.4,5.4-7.1,10.8-11.1,16.2c-4,5.4-8.2,10.3-12.6,14.8c-4.4,4.4-8.8,8.1-13.4,11.1
		c-4.6,3-9.1,4.7-13.6,5.1c-4.2,0.4-8-0.4-11.3-2.3c-3.3-1.9-5.4-5.1-6.3-9.3c-0.9-4.1-0.8-9.9,0.2-17.3c1-7.4,2.8-15.5,5.3-24.3
		c2.5-8.8,5.7-17.9,9.5-27.3c3.9-9.4,8.1-18.2,12.8-26.3c4.7-8.1,9.7-15.2,15.2-21.3c5.4-6,11-10.1,16.7-12.3
		c5.2-1.9,9.5-2.4,12.7-1.4c3.2,1,5.6,3,7,6c1.4,3,2,6.8,1.7,11.3c-0.3,4.6-1.2,9.4-2.9,14.6c-1.7,5.2-3.9,10.4-6.7,15.8
		c-2.8,5.4-6.1,10.4-10,15c-3.8,4.6-8.1,8.7-12.7,12.1C526.4,250.5,521.5,253,516.4,254.4L516.4,254.4z M547.5,194.5
		c-2.4,2.4-4.9,5.5-7.4,9.4c-2.5,3.9-5.1,8.2-7.6,12.9c-2.5,4.7-4.9,9.5-7.1,14.5c-2.3,5-4.4,9.8-6.3,14.4c4.9-3,9.3-6.6,13.1-10.8
		c3.8-4.2,6.9-8.6,9.3-13.2c2.4-4.6,4.2-9.3,5.2-14C547.7,203,548,198.6,547.5,194.5z"/>
	<path class="st0" d="M581.3,271.3c-2.3,1.4-4.5,2.2-6.6,2.5c-2.1,0.3-3.9,0.2-5.5-0.5l0,0.2c-0.2,2.7,0,5.3,0.6,7.7
		c0.6,2.5,2.2,3.9,4.8,4.3c1.9,0.2,4.4-0.9,7.5-3.3c3.1-2.4,6.4-5.5,10-9.4c3.6-3.8,7.3-8.1,11-12.9c3.8-4.8,7.4-9.4,10.7-13.9
		c3.3-4.5,6.3-8.6,9-12.3c2.6-3.7,4.6-6.5,6-8.2c0.5-0.6,1.1-0.9,1.8-1c0.7-0.1,1.3,0,1.9,0.2c0.6,0.2,1,0.6,1.3,1
		c0.3,0.5,0.2,0.9-0.1,1.3c-0.8,1.4-2.3,4.1-4.6,8.3c-2.3,4.1-5,9-8.4,14.5c-3.3,5.5-7,11.3-11.1,17.4c-4.1,6-8.4,11.7-13,16.9
		c-4.6,5.2-9.2,9.6-13.9,13.3c-4.7,3.6-9.4,5.6-14,6.1c-6.3,0.7-11.3,0-15.1-2c-3.8-2.1-6.5-5-8.1-8.9c-1.6-3.8-2.3-8.3-2-13.5
		c0.3-5.1,1.3-10.5,3-16.1c1.7-5.6,4.2-11.1,7.3-16.6c3.1-5.4,6.7-10.4,10.6-14.9c4-4.5,8.2-8.2,12.8-11.2c4.6-3,9.3-4.7,14.3-5.2
		c3.5-0.3,6.2,0.3,8.1,1.7c1.9,1.4,3.4,3.2,4.3,5.5c1,2.2,1.5,4.6,1.6,7.1c0.1,2.5,0.1,4.6,0,6.2c-0.6,3.5-1.6,6.9-3,10.4
		c-1.4,3.4-3.2,6.7-5.3,9.9c-2.1,3.2-4.5,6-7.3,8.7C587.3,267,584.4,269.3,581.3,271.3L581.3,271.3z M592.6,230.7
		c-0.8-0.3-2.2,0.6-4.3,2.4c-2,1.9-4.3,4.5-6.7,7.7c-2.4,3.3-4.7,7-6.9,11.3c-2.2,4.3-3.7,8.7-4.7,13.1c0.3,0.3,0.9,0.3,1.9-0.1
		c2.4-0.9,4.6-2.5,6.8-4.9c2.2-2.4,4.1-5.1,5.9-8c1.8-2.9,3.2-5.8,4.4-8.6c1.2-2.8,2.1-5.1,2.7-6.8c0.5-1.5,0.9-2.6,1.1-3.4
		c0.2-0.8,0.3-1.4,0.3-1.7c0-0.4-0.1-0.6-0.2-0.7C592.9,230.9,592.8,230.8,592.6,230.7L592.6,230.7z"/>
	<path class="st0" d="M705.2,193c-5.6-1-11.5-1.1-17.8,0c-6.3,1-12.9,2.2-19.7,3.5c-2.2,4.5-4.5,9.2-6.9,14.2
		c-2.4,5-4.6,9.8-6.8,14.4c-2.1,4.7-4.1,9.1-5.8,13.2c-1.8,4.1-3.1,7.5-4.1,10.2c-0.2,0.4-0.7,1.6-1.4,3.7c-0.8,2.1-1.5,4.2-2.1,6.4
		c-0.7,2.2-1.1,4-1.1,5.5c-0.1,1.5,0.5,1.8,1.7,1c0.5-0.3,1.1-0.9,1.9-1.7c0.8-0.8,1.7-1.7,2.8-2.8c1-1,2.1-2.1,3.1-3.2
		c1-1.1,1.9-2.1,2.7-3c3.4-4,6.2-7.4,8.3-10.1c2.1-2.7,4-5.3,5.7-7.7c1.7-2.4,3.6-5,5.5-7.7c2-2.8,4.6-6.3,7.8-10.5
		c0.5-0.6,1.2-1,1.9-1.1c0.7-0.2,1.4-0.1,2,0.2c0.6,0.3,1.1,0.7,1.4,1.2c0.3,0.5,0.3,1.2-0.1,2c-3,6.5-6.4,13.2-10.1,19.9
		c-3.7,6.8-7.7,13.3-12,19.7c-1.9,2.9-3.9,6.3-6,10c-2.1,3.7-4.4,7.3-6.9,10.8c-2.6,3.5-5.4,6.5-8.6,9.1c-3.2,2.6-6.9,4-11.1,4.4
		c-4.2,0.4-8-0.4-11.3-2.3c-3.3-1.9-5.4-5.1-6.3-9.3c-1.1-5.7-1.1-11.9,0.1-18.4c1.2-6.5,3.8-14.3,7.7-23.4c1-2.4,2.2-5.2,3.6-8.4
		c1.4-3.2,3-6.6,4.6-10.4c1.7-3.8,3.5-7.7,5.3-11.7c1.8-4,3.8-8,5.8-12.1c-4-0.4-7.7-1.2-11.3-2.4c-0.9-0.4-1.6-0.9-1.9-1.6
		c-0.4-0.7-0.4-1.4-0.2-2c0.2-0.6,0.7-1.1,1.4-1.5c0.7-0.4,1.5-0.6,2.6-0.5c4.6,0.6,9.2,0.5,13.7-0.2c2.3-4.2,4.5-8.2,6.9-12
		c2.3-3.7,4.5-7,6.6-9.9c0.9-1.3,2.6-1.9,5-1.8c2.4,0.1,4.8,0.7,7.1,1.8c2.3,1.2,4.2,2.8,5.7,4.9c1.5,2.1,1.8,4.6,0.9,7.5
		c3.5-1.2,7-2.2,10.7-3.1c3.6-0.9,7.5-1.6,11.6-2c2.1,0.4,4,1.7,5.7,3.8c1.7,2.1,3,4.2,3.9,6.4c0.9,2.2,1.2,4.1,1.1,5.7
		C707.8,192.9,706.9,193.5,705.2,193L705.2,193z"/>
	<path class="st0" d="M755.1,185.4c-5.6-1-11.5-1.1-17.8,0c-6.3,1-12.9,2.2-19.7,3.5c-2.2,4.5-4.5,9.2-6.9,14.2
		c-2.4,5-4.6,9.8-6.8,14.4c-2.1,4.7-4.1,9.1-5.8,13.2c-1.8,4.1-3.1,7.5-4.1,10.2c-0.2,0.4-0.7,1.6-1.4,3.7c-0.8,2.1-1.5,4.2-2.1,6.4
		c-0.7,2.2-1.1,4-1.1,5.5c-0.1,1.5,0.5,1.8,1.7,1c0.5-0.3,1.1-0.9,1.9-1.7c0.8-0.8,1.7-1.7,2.8-2.8c1-1,2.1-2.1,3.1-3.2
		c1-1.1,1.9-2.1,2.7-3c3.4-4,6.2-7.4,8.3-10.1c2.1-2.7,4-5.3,5.7-7.7c1.7-2.4,3.6-5,5.5-7.7c2-2.8,4.6-6.3,7.8-10.5
		c0.5-0.6,1.2-1,1.9-1.1c0.7-0.2,1.4-0.1,2,0.2c0.6,0.3,1.1,0.7,1.4,1.2c0.3,0.5,0.3,1.2-0.1,2c-3,6.5-6.4,13.2-10.1,19.9
		c-3.7,6.8-7.7,13.3-12,19.7c-1.9,2.9-3.9,6.3-6,10c-2.1,3.7-4.4,7.3-6.9,10.8c-2.6,3.5-5.4,6.5-8.6,9.1c-3.2,2.6-6.9,4-11.1,4.4
		c-4.2,0.4-8-0.4-11.3-2.3c-3.3-1.9-5.4-5.1-6.3-9.3c-1.1-5.7-1.1-11.9,0.1-18.4c1.2-6.5,3.8-14.3,7.7-23.4c1-2.4,2.2-5.2,3.6-8.4
		c1.4-3.2,2.9-6.6,4.6-10.4c1.7-3.8,3.5-7.7,5.3-11.7c1.8-4,3.8-8,5.8-12.1c-4-0.4-7.7-1.2-11.3-2.4c-0.9-0.4-1.6-0.9-1.9-1.6
		c-0.4-0.7-0.4-1.4-0.2-2c0.2-0.6,0.7-1.1,1.4-1.5c0.7-0.4,1.5-0.6,2.6-0.5c4.6,0.6,9.2,0.5,13.7-0.2c2.2-4.2,4.5-8.2,6.9-12
		c2.3-3.7,4.5-7,6.6-9.9c0.9-1.3,2.6-1.9,5-1.8s4.8,0.7,7.1,1.8c2.3,1.2,4.2,2.8,5.7,4.9c1.5,2.1,1.8,4.6,0.9,7.5
		c3.5-1.2,7-2.2,10.7-3.1c3.6-0.9,7.5-1.6,11.6-2c2.1,0.4,4,1.7,5.7,3.8c1.7,2.1,3,4.2,3.9,6.4c0.9,2.2,1.2,4.1,1.1,5.7
		C757.8,185.3,756.8,185.9,755.1,185.4L755.1,185.4z"/>
	<path class="st0" d="M777.2,188l0.4,0.1c0.7-0.4,2-0.4,3.9-0.1c1.9,0.3,3.7,1,5.5,2.1c1.8,1.1,3.2,2.6,4.2,4.6s1.1,4.3,0.3,7.2
		c-0.9,3-2.3,6.2-4.2,9.6c-1.9,3.4-3.3,6.2-4.4,8.5c-1.2,2.6-3.2,4.5-5.9,5.9c-2.7,1.4-5.4,2.1-8.1,2.4c-2.7,0.2-5.2,0-7.3-0.7
		c-2.1-0.7-3.2-1.8-3.1-3.3c0.9-3,1.9-6,2.9-9c1-3,2.1-6,3.5-8.9c-2.9,2.3-5.6,5.3-8,9c-2.4,3.6-4.6,7.6-6.6,11.8
		c-2,4.2-3.9,8.6-5.6,13.1c-1.7,4.5-3.4,9-5.1,13.2c-1.7,4.3-3.3,8.2-5,11.9c-1.6,3.7-3.4,6.7-5.1,9.1c-1.8,2.9-3.9,4.7-6.4,5.3
		c-2.4,0.6-4.6,0.5-6.6-0.3c-2-0.8-3.6-2.2-4.9-4.3c-1.3-2-1.6-4.3-0.9-6.7c3.4-15,6.8-28.1,10.2-39.2c3.4-11.2,6.8-21.4,10.1-30.7
		c1.2-2.6,3.2-4.5,5.9-5.7c2.7-1.2,5.3-1.7,7.8-1.5c2.5,0.3,4.5,1.2,6.2,2.8c1.6,1.6,2.1,4,1.4,7c-1.1,2.8-2,4.9-2.6,6.3
		c-0.7,1.4-1.3,2.6-2,3.7c-0.6,1.1-1.3,2.4-1.9,3.9c-0.6,1.5-1.3,3.7-2.1,6.6c2.4-4.6,4.9-9,7.3-13c2.4-4,5-7.5,7.6-10.5
		c2.7-3,5.5-5.3,8.6-7.1C770.1,189.2,773.5,188.2,777.2,188L777.2,188z"/>
	<path class="st0" d="M823.3,234.4c-2.3,1.4-4.5,2.2-6.6,2.5c-2.1,0.3-3.9,0.2-5.5-0.5l0,0.2c-0.2,2.7,0,5.3,0.6,7.7
		c0.6,2.5,2.2,3.9,4.8,4.3c1.9,0.2,4.4-0.9,7.5-3.3c3.1-2.4,6.4-5.5,10-9.4c3.6-3.8,7.3-8.1,11-12.9c3.8-4.8,7.4-9.4,10.7-13.9
		c3.3-4.5,6.3-8.6,9-12.3c2.6-3.7,4.6-6.5,6-8.2c0.5-0.6,1.1-0.9,1.8-1c0.7-0.1,1.3,0,1.9,0.2c0.6,0.2,1,0.6,1.3,1
		c0.3,0.5,0.2,0.9-0.1,1.3c-0.8,1.4-2.3,4.1-4.6,8.3c-2.3,4.1-5,9-8.4,14.5c-3.3,5.5-7,11.3-11.1,17.4c-4.1,6-8.4,11.7-13,16.9
		c-4.6,5.2-9.2,9.6-13.9,13.3c-4.7,3.6-9.4,5.6-14,6.1c-6.3,0.7-11.3,0-15.1-2c-3.8-2.1-6.5-5-8.1-8.9c-1.6-3.8-2.3-8.3-2-13.5
		c0.3-5.1,1.3-10.5,3-16.1c1.7-5.6,4.2-11.1,7.3-16.6c3.1-5.5,6.7-10.4,10.6-14.9c4-4.5,8.2-8.2,12.8-11.2c4.6-3,9.3-4.7,14.3-5.2
		c3.5-0.3,6.2,0.3,8.1,1.7c1.9,1.4,3.4,3.2,4.3,5.5c1,2.2,1.5,4.6,1.6,7.1c0.1,2.5,0.1,4.6,0,6.2c-0.6,3.5-1.6,6.9-3,10.4
		c-1.4,3.4-3.2,6.7-5.3,9.9c-2.1,3.2-4.5,6-7.3,8.7C829.3,230.2,826.4,232.5,823.3,234.4L823.3,234.4z M834.7,193.8
		c-0.8-0.3-2.2,0.6-4.3,2.4c-2,1.9-4.3,4.5-6.7,7.7c-2.4,3.3-4.7,7-6.9,11.3c-2.2,4.3-3.7,8.7-4.7,13.1c0.3,0.3,0.9,0.3,1.9-0.1
		c2.4-0.9,4.6-2.5,6.8-4.9c2.2-2.4,4.1-5.1,5.9-8c1.8-2.9,3.2-5.8,4.4-8.6c1.2-2.8,2.1-5.1,2.7-6.8c0.5-1.5,0.9-2.6,1.1-3.4
		c0.2-0.8,0.3-1.4,0.3-1.7c0-0.4-0.1-0.6-0.2-0.7C835,194,834.8,193.9,834.7,193.8z"/>
	<path class="st0" d="M909.3,180.9c-0.1,2-0.6,3.7-1.6,4.9c-1,1.2-2,2-3.1,2.5c-1.1,0.4-2,0.4-2.9,0c-0.9-0.4-1.3-1.4-1.3-2.9
		c0.6-0.7,0.9-1.4,0.8-2.1c-0.1-0.7-0.4-1.3-0.9-1.7c-0.5-0.5-1.2-0.8-2-0.9c-0.8-0.1-1.6-0.1-2.3,0.2c-2,0.9-3.3,2.5-4,4.7
		c-0.7,2.2-1.1,4.2-1.1,6.1c0,1.5,0.5,3.4,1.5,5.5c1,2.2,2.2,4.5,3.6,6.9c4.4-3.6,8.7-7,12.9-10.3c4.2-3.3,8.1-6.3,11.6-9.1
		c3.5-2.8,6.6-5.2,9.2-7.3c2.6-2,4.4-3.6,5.5-4.8c1.3-0.7,2.5-0.6,3.6,0.3c1.1,0.9,1.3,2,0.5,3.2c-5.4,6.5-11.4,13-18.1,19.5
		c-6.6,6.5-12.9,12.8-18.9,19c2.1,3.8,3.5,7.2,4.2,9.9c1,5.9-0.1,11.6-3.4,17.1c-3.3,5.5-8.3,10.3-15,14.2
		c-4.8,2.6-9.1,4.1-12.9,4.6c-3.8,0.5-7.1,0.2-9.9-0.8c-2.8-1-5-2.4-6.7-4.3c-1.7-1.9-2.7-3.9-3.2-5.9c-0.2-1.5,0.1-3.2,1-5.2
		c0.9-2,2.3-4.2,4.2-6.6c1.9-2.4,4.2-4.9,6.8-7.6c2.6-2.7,5.4-5.5,8.5-8.4c-2.4-4.4-4.6-9.1-6.4-14.1c-1.8-5-2.4-9.8-1.7-14.5
		c0.2-1.3,0.9-3.1,2.3-5.5c1.3-2.4,3.1-4.8,5.4-7.3c2.3-2.5,4.9-4.7,8-6.8c3.1-2,6.5-3.5,10.1-4.3c2.1-0.3,4.1-0.4,6.2-0.4
		c2,0.1,3.8,0.6,5.3,1.5c1.5,0.9,2.7,2.2,3.5,4C909.2,175.9,909.5,178.1,909.3,180.9L909.3,180.9z M884.6,234.5
		c-2.8,3.2-5.2,5.6-7.2,7.3c-2,1.7-2.6,2.9-1.9,3.7c1.3,1.4,2.9,2.1,4.7,1.9c1.8-0.1,3.3-0.8,4.6-1.9c1.3-1.1,2.1-2.6,2.4-4.5
		c0.3-1.9-0.3-3.8-2-5.8L884.6,234.5z"/>
</g>
</svg>
