<svg width="134" height="56" viewBox="0 0 134 56" fill="none" xmlns="http://www.w3.org/2000/svg">
<rect width="134" height="56" rx="10" fill="#8BBEB2" fill-opacity="0.5"/>
<path d="M46.6913 34.6V21.748H49.4093V32.35H54.6293V34.6H46.6913ZM65.581 29.668C65.581 30.484 65.467 31.21 65.239 31.846C65.023 32.482 64.705 33.022 64.285 33.466C63.877 33.898 63.379 34.228 62.791 34.456C62.203 34.672 61.537 34.78 60.793 34.78C60.109 34.78 59.473 34.672 58.885 34.456C58.309 34.228 57.811 33.898 57.391 33.466C56.971 33.022 56.641 32.482 56.401 31.846C56.173 31.21 56.059 30.484 56.059 29.668C56.059 28.576 56.251 27.658 56.635 26.914C57.019 26.158 57.571 25.582 58.291 25.186C59.011 24.79 59.863 24.592 60.847 24.592C61.771 24.592 62.587 24.79 63.295 25.186C64.003 25.582 64.561 26.158 64.969 26.914C65.377 27.658 65.581 28.576 65.581 29.668ZM58.795 29.668C58.795 30.316 58.861 30.862 58.993 31.306C59.137 31.738 59.359 32.068 59.659 32.296C59.959 32.512 60.349 32.62 60.829 32.62C61.309 32.62 61.693 32.512 61.981 32.296C62.281 32.068 62.497 31.738 62.629 31.306C62.773 30.862 62.845 30.316 62.845 29.668C62.845 29.02 62.773 28.48 62.629 28.048C62.497 27.616 62.281 27.292 61.981 27.076C61.681 26.86 61.291 26.752 60.811 26.752C60.103 26.752 59.587 26.998 59.263 27.49C58.951 27.97 58.795 28.696 58.795 29.668ZM70.9835 24.592C71.5835 24.592 72.1235 24.712 72.6035 24.952C73.0835 25.192 73.4915 25.552 73.8275 26.032H73.8995L74.1155 24.772H76.3835V34.618C76.3835 35.554 76.1975 36.34 75.8255 36.976C75.4655 37.612 74.9195 38.092 74.1875 38.416C73.4555 38.752 72.5495 38.92 71.4695 38.92C70.7735 38.92 70.1255 38.878 69.5255 38.794C68.9375 38.71 68.3615 38.56 67.7975 38.344V36.202C68.2055 36.37 68.6135 36.508 69.0215 36.616C69.4415 36.736 69.8675 36.82 70.2995 36.868C70.7435 36.928 71.1875 36.958 71.6315 36.958C72.3275 36.958 72.8435 36.772 73.1795 36.4C73.5275 36.028 73.7015 35.47 73.7015 34.726V34.528C73.7015 34.324 73.7075 34.114 73.7195 33.898C73.7435 33.682 73.7615 33.49 73.7735 33.322H73.7015C73.3655 33.838 72.9635 34.21 72.4955 34.438C72.0275 34.666 71.4995 34.78 70.9115 34.78C69.7475 34.78 68.8355 34.336 68.1755 33.448C67.5275 32.548 67.2035 31.3 67.2035 29.704C67.2035 28.624 67.3535 27.706 67.6535 26.95C67.9535 26.182 68.3855 25.6 68.9495 25.204C69.5255 24.796 70.2035 24.592 70.9835 24.592ZM71.8295 26.77C71.4095 26.77 71.0555 26.884 70.7675 27.112C70.4915 27.328 70.2815 27.658 70.1375 28.102C70.0055 28.534 69.9395 29.08 69.9395 29.74C69.9395 30.724 70.0955 31.462 70.4075 31.954C70.7195 32.434 71.2055 32.674 71.8655 32.674C72.2135 32.674 72.5135 32.632 72.7655 32.548C73.0175 32.452 73.2215 32.302 73.3775 32.098C73.5455 31.882 73.6715 31.606 73.7555 31.27C73.8395 30.934 73.8815 30.526 73.8815 30.046V29.722C73.8815 29.014 73.8095 28.444 73.6655 28.012C73.5215 27.58 73.2995 27.268 72.9995 27.076C72.6995 26.872 72.3095 26.77 71.8295 26.77ZM88.1162 29.668C88.1162 30.484 88.0022 31.21 87.7742 31.846C87.5582 32.482 87.2402 33.022 86.8202 33.466C86.4122 33.898 85.9142 34.228 85.3262 34.456C84.7382 34.672 84.0722 34.78 83.3282 34.78C82.6442 34.78 82.0082 34.672 81.4202 34.456C80.8442 34.228 80.3462 33.898 79.9262 33.466C79.5062 33.022 79.1762 32.482 78.9362 31.846C78.7082 31.21 78.5942 30.484 78.5942 29.668C78.5942 28.576 78.7862 27.658 79.1702 26.914C79.5542 26.158 80.1062 25.582 80.8262 25.186C81.5462 24.79 82.3982 24.592 83.3822 24.592C84.3062 24.592 85.1222 24.79 85.8302 25.186C86.5382 25.582 87.0962 26.158 87.5042 26.914C87.9122 27.658 88.1162 28.576 88.1162 29.668ZM81.3302 29.668C81.3302 30.316 81.3962 30.862 81.5282 31.306C81.6722 31.738 81.8942 32.068 82.1942 32.296C82.4942 32.512 82.8842 32.62 83.3642 32.62C83.8442 32.62 84.2282 32.512 84.5162 32.296C84.8162 32.068 85.0322 31.738 85.1642 31.306C85.3082 30.862 85.3802 30.316 85.3802 29.668C85.3802 29.02 85.3082 28.48 85.1642 28.048C85.0322 27.616 84.8162 27.292 84.5162 27.076C84.2162 26.86 83.8262 26.752 83.3462 26.752C82.6382 26.752 82.1222 26.998 81.7982 27.49C81.4862 27.97 81.3302 28.696 81.3302 29.668Z" fill="black"/>
</svg>
