<svg width="16" height="6" viewBox="0 0 16 6" fill="none" xmlns="http://www.w3.org/2000/svg">
<g clip-path="url(#clip0_681_2035)">
<path d="M3.8764 5.67988C4.37619 5.67988 4.78136 5.2794 4.78136 4.78538C4.78136 4.29135 4.37619 3.89087 3.8764 3.89087C3.3766 3.89087 2.97144 4.29135 2.97144 4.78538C2.97144 5.2794 3.3766 5.67988 3.8764 5.67988Z" fill="#8BBEB2"/>
<path d="M1.88544 4.54971L3.064 2.0585C3.24992 1.66534 3.59168 1.35568 4.0144 1.23928C4.72 1.04507 5.43872 1.39711 5.73344 2.0196L6.93024 4.54971C7.27264 5.27341 8.00768 5.73553 8.81568 5.73553L6.82048 1.51731C6.38432 0.5956 5.43744 0 4.408 0C3.37856 0 2.43168 0.5956 1.99552 1.51731L0 5.73585C0.808 5.73585 1.54336 5.27341 1.88544 4.54971Z" fill="#0D0630"/>
<path d="M12.1235 1.84504C12.6233 1.84504 13.0284 1.44456 13.0284 0.950537C13.0284 0.456514 12.6233 0.0560303 12.1235 0.0560303C11.6237 0.0560303 11.2185 0.456514 11.2185 0.950537C11.2185 1.44456 11.6237 1.84504 12.1235 1.84504Z" fill="#8BBEB2"/>
<path d="M14.1146 1.18582L12.9361 3.67703C12.7502 4.0702 12.4084 4.37986 11.9857 4.49626C11.2801 4.69047 10.5614 4.33842 10.2666 3.71594L9.06984 1.18582C8.72744 0.462436 7.99208 0 7.18408 0L9.1796 4.21854C9.61576 5.14025 10.5626 5.73585 11.5921 5.73585C12.6215 5.73585 13.5684 5.14025 14.0046 4.21854L16.0001 0C15.1921 0 14.4567 0.462436 14.1146 1.18582Z" fill="#384E77"/>
</g>
<defs>
<clipPath id="clip0_681_2035">
<rect width="16" height="5.73585" fill="white"/>
</clipPath>
</defs>
</svg>
