<?xml version="1.0" encoding="utf-8"?>
<!-- Generator: Adobe Illustrator 26.5.0, SVG Export Plug-In . SVG Version: 6.00 Build 0)  -->
<svg version="1.1" id="Calque_1" xmlns="http://www.w3.org/2000/svg" xmlns:xlink="http://www.w3.org/1999/xlink" x="0px" y="0px"
	 viewBox="0 0 500 181.34" style="enable-background:new 0 0 500 181.34;" xml:space="preserve">
<style type="text/css">
	.st0{fill:#8BBEB2;}
	.st1{fill:#FFFFFF;}
</style>
<g>
	<circle class="st0" cx="121.14" cy="151.29" r="28.28"/>
	<path class="st1" d="M58.92,143.84l36.83-78.76c5.81-12.43,16.49-22.22,29.7-25.9c22.05-6.14,44.51,4.99,53.72,24.67l37.4,79.99
		c10.7,22.88,33.67,37.49,58.92,37.49l0,0L213.14,47.97C199.51,18.83,169.92,0,137.75,0S75.99,18.83,62.36,47.97L0,181.34l0,0
		C25.25,181.34,48.23,166.72,58.92,143.84z"/>
	<circle class="st0" cx="378.86" cy="30.05" r="28.28"/>
	<path class="st1" d="M441.08,37.49l-36.83,78.76c-5.81,12.43-16.49,22.22-29.7,25.9c-22.05,6.14-44.51-4.99-53.72-24.67
		l-37.4-79.99C272.73,14.62,249.75,0,224.5,0l0,0l62.36,133.37c13.63,29.14,43.22,47.97,75.39,47.97s61.76-18.83,75.39-47.97L500,0
		l0,0C474.75,0,451.77,14.62,441.08,37.49z"/>
</g>
</svg>
