<svg width="140" height="104" viewBox="0 0 140 104" fill="none" xmlns="http://www.w3.org/2000/svg">
<path d="M11.9486 103.798H1.69124C1.4683 103.798 1.24756 103.754 1.04172 103.669C0.835879 103.583 0.648996 103.457 0.491821 103.299C0.334646 103.141 0.210281 102.953 0.125881 102.747C0.0414805 102.54 -0.00128919 102.319 2.99659e-05 102.096V29.5266C-0.00129821 29.304 0.0415376 29.0834 0.126058 28.8775C0.210579 28.6716 0.335103 28.4845 0.492411 28.3271C0.649719 28.1698 0.836685 28.0452 1.04247 27.9606C1.24826 27.876 1.46877 27.8332 1.69124 27.8345H11.9486V103.798Z" fill="#384E77"/>
<path d="M55.0895 103.798H11.9487V27.8345H55.0895C55.3125 27.8332 55.5335 27.876 55.7398 27.9604C55.9462 28.0449 56.1338 28.1693 56.2919 28.3266C56.45 28.4838 56.5755 28.6708 56.6611 28.8767C56.7467 29.0827 56.7908 29.3035 56.7908 29.5266V102.096C56.7908 102.32 56.7468 102.541 56.6613 102.748C56.5758 102.954 56.4505 103.142 56.2925 103.3C56.1345 103.458 55.947 103.583 55.7406 103.669C55.5342 103.754 55.313 103.798 55.0895 103.798V103.798Z" fill="#0D0630"/>
<path d="M11.9585 96.1989H0V99.098H11.9585V96.1989Z" fill="#8BBEB2"/>
<path d="M11.9585 32.5302H0V35.4293H11.9585V32.5302Z" fill="#8BBEB2"/>
<path fill-rule="evenodd" clip-rule="evenodd" d="M5.63382 44.1605C6.1005 44.1605 6.47882 44.5388 6.47882 45.0055V86.7171C6.47882 87.1838 6.1005 87.5621 5.63382 87.5621C5.16714 87.5621 4.78882 87.1838 4.78882 86.7171V45.0055C4.78882 44.5388 5.16714 44.1605 5.63382 44.1605Z" fill="#8BBEB2"/>
<path d="M35.0453 103.798H24.2676C23.7952 103.798 23.3421 103.61 23.0081 103.276C22.674 102.942 22.4863 102.489 22.4863 102.016V1.7822C22.4863 1.30953 22.674 0.856219 23.0081 0.521992C23.3421 0.187764 23.7952 0 24.2676 0H35.0453V103.798Z" fill="#E6F9AF"/>
<path d="M35.0553 91.0925H22.4863V95.0451H35.0553V91.0925Z" fill="#384E77"/>
<path d="M35.0553 97.2302H22.4863V99.2065H35.0553V97.2302Z" fill="#384E77"/>
<path d="M35.0453 8.75085H22.4863V12.7034H35.0453V8.75085Z" fill="#384E77"/>
<path d="M35.0453 4.58569H22.4863V6.56196H35.0453V4.58569Z" fill="#384E77"/>
<path d="M32.9234 53.8565C32.9234 62.0567 31.062 68.7049 28.7704 68.7049C26.4788 68.7049 24.6475 62.0567 24.6475 53.8565C24.6475 45.6564 26.5088 39.0082 28.8104 39.0082C31.1121 39.0082 32.9234 45.6564 32.9234 53.8565Z" fill="#384E77"/>
<path d="M35.0452 0V103.798H95.4583C95.929 103.796 96.3795 103.607 96.7114 103.273C97.0433 102.939 97.2296 102.487 97.2296 102.016V1.7822C97.2296 1.31126 97.0433 0.859462 96.7114 0.525521C96.3795 0.19158 95.929 0.00264573 95.4583 0H35.0452Z" fill="#8BBEB2"/>
<path d="M67.7583 5.66687V103.788H124.349C124.88 103.788 125.389 103.577 125.764 103.202C126.139 102.826 126.35 102.317 126.35 101.786V7.66934C126.35 7.13826 126.139 6.62892 125.764 6.25338C125.389 5.87784 124.88 5.66687 124.349 5.66687H67.7583Z" fill="#18314F"/>
<path d="M67.758 103.798H55.6694C55.1386 103.798 54.6295 103.587 54.2542 103.212C53.8788 102.836 53.668 102.327 53.668 101.796V7.67935C53.668 7.14827 53.8788 6.63893 54.2542 6.26339C54.6295 5.88785 55.1386 5.67688 55.6694 5.67688H67.758V103.798Z" fill="#384E77"/>
<path d="M67.7583 91.7833H53.6182V95.5252H67.7583V91.7833Z" fill="#0D0630"/>
<path d="M67.7583 97.5906H53.6182V99.4665H67.7583V97.5906Z" fill="#0D0630"/>
<path d="M67.7583 13.9371H53.6182V17.679H67.7583V13.9371Z" fill="#0D0630"/>
<path d="M67.7583 10.0023H53.6182V11.8783H67.7583V10.0023Z" fill="#0D0630"/>
<path fill-rule="evenodd" clip-rule="evenodd" d="M60.7329 40.3512C61.2852 40.3512 61.7329 40.7989 61.7329 41.3512V76.4846C61.7329 77.0369 61.2852 77.4846 60.7329 77.4846C60.1806 77.4846 59.7329 77.0369 59.7329 76.4846V41.3512C59.7329 40.7989 60.1806 40.3512 60.7329 40.3512Z" fill="#0D0630"/>
<path d="M76.6147 5.66706V28.7656L82.6891 24.1299L89.0136 28.7957V5.66706C89.0136 5.19439 88.8259 4.74108 88.4919 4.40685C88.1578 4.07263 87.7048 3.88486 87.2323 3.88486H78.4461C78.208 3.87816 77.9709 3.91931 77.749 4.00588C77.5271 4.09244 77.3248 4.22266 77.154 4.38882C76.9833 4.55498 76.8476 4.75372 76.755 4.97328C76.6623 5.19283 76.6147 5.42875 76.6147 5.66706Z" fill="#E6F9AF"/>
<path d="M112 103.798H107.147C107.041 103.798 106.936 103.777 106.838 103.736C106.74 103.696 106.652 103.636 106.577 103.56C106.503 103.485 106.444 103.395 106.404 103.297C106.365 103.199 106.345 103.093 106.346 102.987V57.8615C106.346 57.6491 106.431 57.4454 106.581 57.2952C106.731 57.1449 106.935 57.0605 107.147 57.0605H112V103.798Z" fill="#E6F9AF"/>
<path d="M112 57.0605V103.798H139.199C139.305 103.798 139.41 103.777 139.508 103.736C139.605 103.696 139.694 103.636 139.769 103.56C139.843 103.485 139.902 103.395 139.941 103.297C139.981 103.199 140.001 103.093 140 102.987V57.8615C140 57.6491 139.915 57.4454 139.765 57.2952C139.615 57.1449 139.411 57.0605 139.199 57.0605H112Z" fill="#8BBEB2"/>
<path d="M112 98.0712H106.346V99.8568H112V98.0712Z" fill="#81CCCC"/>
<path d="M112 100.834H106.346V101.727H112V100.834Z" fill="#81CCCC"/>
<path d="M112 60.9954H106.346V62.781H112V60.9954Z" fill="#81CCCC"/>
<path d="M112 59.1232H106.346V60.016H112V59.1232Z" fill="#81CCCC"/>
<path d="M109.989 81.3105C109.989 85.005 109.628 87.9987 109.168 87.9987C108.708 87.9987 108.357 84.995 108.357 81.3105C108.357 77.6259 108.718 74.6322 109.168 74.6322C109.618 74.6322 109.989 77.6159 109.989 81.3105Z" fill="white"/>
<path fill-rule="evenodd" clip-rule="evenodd" d="M78.3667 41.0508C78.3667 40.2224 79.0383 39.5508 79.8667 39.5508H112.39C113.218 39.5508 113.89 40.2224 113.89 41.0508C113.89 41.8792 113.218 42.5508 112.39 42.5508H79.8667C79.0383 42.5508 78.3667 41.8792 78.3667 41.0508Z" fill="white"/>
<path fill-rule="evenodd" clip-rule="evenodd" d="M117.395 72.0891C117.395 71.5368 117.842 71.0891 118.395 71.0891H134.406C134.958 71.0891 135.406 71.5368 135.406 72.0891C135.406 72.6414 134.958 73.0891 134.406 73.0891H118.395C117.842 73.0891 117.395 72.6414 117.395 72.0891Z" fill="white"/>
<path fill-rule="evenodd" clip-rule="evenodd" d="M84.8721 50.0619C84.8721 49.2335 85.5436 48.5619 86.3721 48.5619H108.888C109.717 48.5619 110.388 49.2335 110.388 50.0619C110.388 50.8903 109.717 51.5619 108.888 51.5619H86.3721C85.5436 51.5619 84.8721 50.8903 84.8721 50.0619Z" fill="white"/>
<path fill-rule="evenodd" clip-rule="evenodd" d="M120.397 78.0964C120.397 77.5442 120.845 77.0964 121.397 77.0964H132.405C132.957 77.0964 133.405 77.5442 133.405 78.0964C133.405 78.6487 132.957 79.0964 132.405 79.0964H121.397C120.845 79.0964 120.397 78.6487 120.397 78.0964Z" fill="white"/>
<path fill-rule="evenodd" clip-rule="evenodd" d="M123.399 98.1212C123.399 97.5689 123.847 97.1212 124.399 97.1212H129.403C129.955 97.1212 130.403 97.5689 130.403 98.1212C130.403 98.6735 129.955 99.1212 129.403 99.1212H124.399C123.847 99.1212 123.399 98.6735 123.399 98.1212Z" fill="#384E77"/>
</svg>
