<?xml version="1.0" encoding="utf-8"?>
<!-- Generator: Adobe Illustrator 26.5.0, SVG Export Plug-In . SVG Version: 6.00 Build 0)  -->
<svg version="1.1" id="Calque_1" xmlns="http://www.w3.org/2000/svg" xmlns:xlink="http://www.w3.org/1999/xlink" x="0px" y="0px"
	 viewBox="0 0 55.1 66" style="enable-background:new 0 0 55.1 66;" xml:space="preserve">
<style type="text/css">
	.st0{fill:#FFFFFF;}
	.st1{fill:#8BBEB2;}
	.st2{fill:none;stroke:#8BBEB2;stroke-width:2;stroke-linecap:round;stroke-linejoin:round;}
</style>
<g>
	<g>
		<path class="st0" d="M10,0h35c5.5,0,10,4.5,10,10v46c0,5.5-4.5,10-10,10H10C4.5,66,0,61.5,0,56V10C0,4.5,4.5,0,10,0z"/>
	</g>
	<path class="st1" d="M17.3,25.6c0,0.5-0.1,0.9-0.4,1.3c-0.2,0.4-0.6,0.7-1.1,0.9c-0.5,0.2-1,0.3-1.7,0.3c-0.3,0-0.6,0-0.9-0.1
		c-0.3,0-0.6-0.1-0.8-0.2c-0.3-0.1-0.5-0.2-0.7-0.3v-1.7c0.4,0.2,0.8,0.3,1.3,0.5c0.4,0.1,0.9,0.2,1.3,0.2c0.3,0,0.5,0,0.7-0.1
		c0.2-0.1,0.3-0.2,0.4-0.3c0.1-0.1,0.1-0.3,0.1-0.5c0-0.2-0.1-0.4-0.2-0.6c-0.1-0.2-0.3-0.3-0.6-0.4c-0.2-0.1-0.5-0.3-0.9-0.4
		c-0.2-0.1-0.4-0.2-0.6-0.3c-0.2-0.1-0.5-0.3-0.7-0.5c-0.2-0.2-0.4-0.4-0.5-0.7c-0.1-0.3-0.2-0.6-0.2-1c0-0.5,0.1-0.9,0.3-1.3
		c0.2-0.4,0.6-0.6,1-0.8c0.4-0.2,1-0.3,1.5-0.3c0.4,0,0.9,0.1,1.3,0.2c0.4,0.1,0.8,0.3,1.3,0.4l-0.6,1.4c-0.4-0.2-0.7-0.3-1.1-0.4
		c-0.3-0.1-0.6-0.1-1-0.1c-0.2,0-0.4,0-0.6,0.1c-0.2,0.1-0.3,0.2-0.4,0.3c-0.1,0.1-0.1,0.3-0.1,0.5c0,0.2,0.1,0.4,0.2,0.5
		c0.1,0.1,0.3,0.3,0.5,0.4c0.2,0.1,0.5,0.3,0.9,0.5c0.4,0.2,0.8,0.4,1.1,0.6c0.3,0.2,0.6,0.5,0.7,0.8C17.2,24.8,17.3,25.2,17.3,25.6
		z M21.3,28.1c-0.6,0-1.2-0.1-1.7-0.3c-0.5-0.2-0.8-0.6-1-1.1c-0.2-0.5-0.4-1.1-0.4-1.9c0-0.8,0.1-1.5,0.4-2
		c0.3-0.5,0.6-0.9,1.1-1.1c0.5-0.2,1-0.4,1.7-0.4c0.4,0,0.8,0,1.2,0.1c0.3,0.1,0.6,0.2,0.9,0.3L23,23.2c-0.3-0.1-0.5-0.2-0.8-0.3
		c-0.2-0.1-0.5-0.1-0.7-0.1c-0.3,0-0.6,0.1-0.8,0.2c-0.2,0.1-0.4,0.4-0.5,0.7c-0.1,0.3-0.1,0.7-0.1,1.1c0,0.4,0.1,0.8,0.2,1.1
		c0.1,0.3,0.3,0.5,0.5,0.6c0.2,0.1,0.5,0.2,0.8,0.2c0.4,0,0.7,0,1-0.1c0.3-0.1,0.6-0.2,0.8-0.4v1.5c-0.3,0.2-0.6,0.3-0.9,0.4
		C22.2,28.1,21.8,28.1,21.3,28.1z M28.5,21.3c0.1,0,0.2,0,0.3,0s0.2,0,0.3,0L29,23.1c-0.1,0-0.1,0-0.3,0c-0.1,0-0.2,0-0.3,0
		c-0.2,0-0.5,0-0.7,0.1c-0.2,0.1-0.4,0.1-0.6,0.3c-0.2,0.1-0.3,0.3-0.4,0.5c-0.1,0.2-0.1,0.5-0.1,0.8V28h-1.8v-6.6h1.4l0.3,1.1h0.1
		c0.1-0.2,0.3-0.4,0.5-0.6c0.2-0.2,0.4-0.3,0.7-0.4C27.9,21.4,28.2,21.3,28.5,21.3z M36,24.7c0,0.5-0.1,1-0.2,1.5
		c-0.1,0.4-0.4,0.8-0.6,1.1c-0.3,0.3-0.6,0.5-1,0.7c-0.4,0.1-0.8,0.2-1.3,0.2c-0.5,0-0.9-0.1-1.3-0.2c-0.4-0.2-0.7-0.4-1-0.7
		c-0.3-0.3-0.5-0.7-0.7-1.1c-0.2-0.4-0.2-0.9-0.2-1.5c0-0.7,0.1-1.3,0.4-1.8c0.3-0.5,0.6-0.9,1.1-1.2s1-0.4,1.7-0.4
		c0.6,0,1.2,0.1,1.6,0.4s0.8,0.6,1.1,1.2C35.9,23.4,36,24,36,24.7z M31.5,24.7c0,0.4,0,0.8,0.1,1.1c0.1,0.3,0.2,0.5,0.4,0.7
		c0.2,0.1,0.5,0.2,0.8,0.2s0.6-0.1,0.8-0.2c0.2-0.2,0.3-0.4,0.4-0.7c0.1-0.3,0.1-0.7,0.1-1.1c0-0.4,0-0.8-0.1-1.1
		c-0.1-0.3-0.2-0.5-0.4-0.6c-0.2-0.1-0.5-0.2-0.8-0.2c-0.5,0-0.8,0.2-1,0.5C31.6,23.6,31.5,24.1,31.5,24.7z M39.3,28h-1.8v-9.1h1.8
		V28z M42.9,28h-1.8v-9.1h1.8V28z"/>
	<path class="st2" d="M27,40.5V56 M27,56l-8-8 M27,56l8-8"/>
</g>
</svg>
