<svg width="953" height="353" viewBox="0 0 953 353" fill="none" xmlns="http://www.w3.org/2000/svg">
<g clip-path="url(#clip0_40_370)">
<path d="M71.5277 155.604C58.4437 158.051 47.2456 158.36 37.925 156.539C28.6043 154.718 21.0861 151.662 15.3785 147.352C9.66265 143.051 5.56558 137.923 3.0873 131.976C0.600688 126.03 -0.383945 120.125 0.133405 114.262C0.64241 108.399 2.56996 103.02 5.9077 98.1094C9.23709 93.2068 13.7681 89.6239 19.4923 87.3689C21.1945 86.6924 22.5046 86.9597 23.4225 88.1707C24.332 89.3817 25.1247 91.194 25.7923 93.6161C26.4515 96.0381 27.119 98.8778 27.7949 102.143C28.4708 105.409 29.4388 108.683 30.6988 111.982C31.9588 115.281 33.6527 118.438 35.7805 121.453C37.9083 124.476 40.7537 126.948 44.3167 128.886C47.8798 130.824 52.3357 132.06 57.6761 132.594C63.0164 133.129 69.5083 132.569 77.1434 130.899C81.2655 129.955 85.0539 128.928 88.5001 127.834C90.0938 118.739 91.7127 109.744 93.3398 100.832C94.967 91.929 96.8027 83.4769 98.8387 75.4758C100.875 67.4747 103.253 60.1335 105.965 53.452C108.677 46.7705 111.898 41.1998 115.628 36.7482C119.357 32.2967 123.697 29.1063 128.628 27.177C133.56 25.2477 139.326 25.0306 145.934 26.5255C149.172 27.2856 151.875 28.5216 154.045 30.2338C156.206 31.9543 157.975 33.7666 159.327 35.6792C160.687 37.5918 161.672 39.4459 162.298 41.2248C162.915 43.0038 163.299 44.3401 163.449 45.217C164.926 54.8384 164.767 64.0505 162.998 72.8534C161.221 81.6562 158.217 89.9162 153.995 97.6333C149.764 105.35 144.532 112.491 138.299 119.048C132.066 125.612 125.274 131.383 117.939 136.369C116.237 143.276 114.434 150.167 112.532 157.04C110.629 163.914 108.552 170.528 106.307 176.876C104.054 183.223 101.559 189.228 98.797 194.874C96.0434 200.528 92.9727 205.648 89.5848 210.242C96.0017 213.716 102.66 217.499 109.578 221.608C116.487 225.709 123.488 229.61 130.589 233.293C137.69 236.976 144.808 240.2 151.951 242.973C159.093 245.737 166.194 247.508 173.262 248.276C180.33 249.044 187.255 248.568 194.039 246.848C200.823 245.127 207.349 241.67 213.615 236.466C215.551 234.846 217.178 234.512 218.505 235.456C219.832 236.4 220.599 238.095 220.808 240.525C221.017 242.956 220.574 245.921 219.473 249.412C218.372 252.911 216.452 256.402 213.732 259.91C211.012 263.418 207.324 266.625 202.693 269.54C198.053 272.455 192.287 274.618 185.386 276.029C177.226 277.649 169.824 277.817 163.19 276.522C156.557 275.227 150.357 273.048 144.591 269.991C138.825 266.926 133.284 263.276 127.977 259.033C122.662 254.79 117.255 250.531 111.739 246.263C106.223 241.987 100.424 237.928 94.3328 234.078C88.2414 230.228 81.5826 227.213 74.3397 225.049C68.4069 229.159 61.5645 231.664 53.8043 232.566C49.1982 232.942 45.026 232.048 41.2961 229.885C37.5578 227.722 34.8292 224.958 33.1103 221.617C31.383 218.268 30.8823 214.685 31.6083 210.868C32.3343 207.043 34.921 203.727 39.3852 200.904C43.4823 198.273 48.0884 197.087 53.1868 197.33C58.2852 197.58 63.7424 198.783 69.5501 200.929C72.7877 194.674 75.5663 187.399 77.8777 179.089C80.1891 170.787 82.2502 161.934 84.0609 152.547C81.9581 153.157 79.8804 153.733 77.8277 154.267C75.7749 154.802 73.6805 155.253 71.536 155.612L71.5277 155.604ZM147.486 45.1586C144.983 48.0483 142.688 51.6062 140.611 55.8489C138.524 60.0917 136.589 64.7938 134.795 69.9636C132.992 75.1334 131.307 80.7375 129.713 86.7843C128.127 92.831 126.575 99.0866 125.065 105.576C131.832 98.7358 136.989 91.5114 140.519 83.9112C144.048 76.311 146.51 69.4708 147.895 63.399C149.28 57.3272 149.806 52.4998 149.472 48.9169C149.13 45.3423 148.471 44.0895 147.486 45.1586Z" fill="white"/>
<path d="M172.62 174.947C170.258 176.383 168.014 177.277 165.869 177.636C163.725 177.995 161.822 177.861 160.162 177.227L160.195 177.419C160.003 180.175 160.253 182.831 160.938 185.378C161.622 187.925 163.291 189.37 165.936 189.704C167.913 189.896 170.475 188.719 173.621 186.18C176.767 183.641 180.146 180.384 183.759 176.408C187.381 172.433 191.102 167.948 194.941 162.953C198.779 157.967 202.384 153.14 205.763 148.488C209.135 143.836 212.155 139.568 214.817 135.684C217.479 131.801 219.498 128.961 220.892 127.174C221.434 126.564 222.06 126.197 222.753 126.088C223.445 125.98 224.104 126.03 224.722 126.247C225.348 126.472 225.79 126.815 226.065 127.291C226.341 127.767 226.316 128.226 225.998 128.669C225.197 130.105 223.662 132.953 221.392 137.23C219.123 141.506 216.327 146.517 212.998 152.263C209.677 158.009 205.939 164.022 201.8 170.295C197.653 176.567 193.28 182.43 188.674 187.867C184.068 193.312 179.354 197.931 174.539 201.714C169.724 205.506 164.96 207.661 160.245 208.187C153.77 209.014 148.571 208.387 144.658 206.308C140.744 204.237 137.907 201.238 136.155 197.313C134.402 193.387 133.635 188.777 133.852 183.482C134.077 178.187 135.028 172.641 136.722 166.837C138.416 161.041 140.836 155.311 143.973 149.657C147.119 144.003 150.699 138.833 154.713 134.131C158.726 129.437 163.074 125.529 167.738 122.413C172.403 119.298 177.284 117.444 182.374 116.851C185.946 116.517 188.733 117.051 190.719 118.48C192.704 119.899 194.215 121.762 195.25 124.05C196.276 126.347 196.877 128.777 197.052 131.341C197.219 133.914 197.252 136.052 197.144 137.756C196.576 141.355 195.583 144.93 194.165 148.479C192.746 152.029 190.977 155.437 188.866 158.711C186.755 161.984 184.302 164.991 181.515 167.731C178.728 170.47 175.757 172.875 172.603 174.963L172.62 174.947ZM183.718 132.978C182.9 132.728 181.448 133.588 179.379 135.551C177.309 137.522 175.065 140.203 172.645 143.585C170.225 146.976 167.93 150.893 165.752 155.353C163.574 159.805 162.022 164.323 161.104 168.883C161.422 169.217 162.056 169.184 163.032 168.758C165.469 167.831 167.78 166.119 169.958 163.613C172.136 161.107 174.105 158.343 175.874 155.32C177.635 152.296 179.12 149.323 180.321 146.4C181.523 143.477 182.424 141.113 183.033 139.326C183.559 137.814 183.918 136.645 184.101 135.835C184.285 135.025 184.385 134.423 184.385 134.039C184.385 133.647 184.31 133.404 184.16 133.296C184.01 133.196 183.868 133.087 183.718 132.978Z" fill="white"/>
<path d="M320.615 95.1195L321.024 95.2447C321.742 94.8689 323.127 94.8271 325.188 95.1362C327.249 95.4452 329.218 96.1551 331.087 97.2659C332.956 98.385 334.417 99.9218 335.46 101.893C336.494 103.864 336.486 106.303 335.41 109.201C334.125 111.623 333.065 113.811 332.222 115.774C331.379 117.736 330.603 119.682 329.886 121.62C329.168 123.558 328.384 125.637 327.516 127.859C326.648 130.08 325.63 132.72 324.453 135.768C324.387 136.169 324.053 137.43 323.427 139.543C322.81 141.664 322.226 143.836 321.691 146.066C321.157 148.296 320.882 150.167 320.874 151.653C320.865 153.148 321.5 153.466 322.785 152.597C323.244 152.263 323.928 151.662 324.821 150.793C325.713 149.933 326.69 148.956 327.741 147.87C328.793 146.784 329.836 145.673 330.879 144.521C331.922 143.377 332.815 142.349 333.574 141.439C337.02 137.23 339.782 133.713 341.843 130.907C343.904 128.101 345.798 125.445 347.517 122.948C349.245 120.451 351.097 117.77 353.083 114.913C355.069 112.049 357.706 108.399 360.985 103.956C361.527 103.346 362.178 102.945 362.921 102.753C363.672 102.561 364.356 102.611 364.99 102.895C365.625 103.179 366.108 103.588 366.459 104.114C366.801 104.641 366.784 105.325 366.409 106.169C363.38 112.909 360.025 119.799 356.329 126.84C352.632 133.88 348.619 140.687 344.263 147.26C342.31 150.317 340.291 153.766 338.205 157.616C336.119 161.467 333.791 165.2 331.221 168.816C328.642 172.433 325.73 175.573 322.484 178.262C319.238 180.943 315.442 182.522 311.111 182.989C306.78 183.457 303.309 182.505 300.714 180.15C298.11 177.795 296.333 174.487 295.365 170.236C294.731 167.229 294.539 163.947 294.798 160.398C295.048 156.848 295.574 153.19 296.375 149.423C297.176 145.657 298.135 141.89 299.262 138.132C300.388 134.373 301.515 130.84 302.65 127.533L303.626 124.059C300.213 128.527 297.142 133.58 294.38 139.234C291.627 144.888 289.032 150.542 286.604 156.213C284.175 161.876 281.831 167.271 279.569 172.383C277.308 177.502 275.013 181.611 272.677 184.735C270.849 187.767 268.688 189.621 266.21 190.297C263.723 190.974 261.445 190.899 259.368 190.08C257.281 189.262 255.588 187.825 254.269 185.771C252.951 183.716 252.6 181.411 253.209 178.839C256.472 163.363 259.76 149.866 263.097 138.332C266.427 126.806 269.756 116.225 273.077 106.578C274.312 103.906 276.315 101.918 279.085 100.607C281.847 99.3037 284.517 98.7609 287.087 98.978C289.658 99.2035 291.785 100.139 293.488 101.801C295.19 103.463 295.716 105.843 295.065 108.942C293.997 111.848 293.12 114.011 292.445 115.414C291.769 116.826 291.109 118.104 290.459 119.256C289.808 120.409 289.182 121.745 288.598 123.265C288.005 124.794 287.313 127.049 286.52 130.039C288.957 125.22 291.385 120.726 293.805 116.55C296.225 112.383 298.795 108.741 301.515 105.626C304.235 102.511 307.131 100.047 310.21 98.2347C313.28 96.4224 316.743 95.3951 320.59 95.1362L320.615 95.1195Z" fill="white"/>
<path d="M381.988 139.986C379.635 141.422 377.382 142.316 375.237 142.675C373.093 143.034 371.19 142.9 369.53 142.266L369.563 142.458C369.371 145.214 369.621 147.87 370.306 150.417C370.99 152.964 372.65 154.409 375.304 154.743C377.281 154.935 379.843 153.758 382.989 151.219C386.135 148.68 389.514 145.423 393.136 141.447C396.749 137.472 400.479 132.987 404.317 127.992C408.156 123.006 411.76 118.179 415.14 113.527C418.511 108.875 421.532 104.607 424.193 100.724C426.855 96.8399 428.875 94.0003 430.268 92.213C430.81 91.6033 431.436 91.2358 432.129 91.1272C432.821 91.0187 433.481 91.0688 434.098 91.2859C434.716 91.5114 435.166 91.8538 435.442 92.3299C435.717 92.806 435.692 93.2653 435.383 93.6996C434.582 95.1361 433.047 97.9841 430.777 102.26C428.507 106.536 425.712 111.548 422.391 117.294C419.07 123.04 415.332 129.053 411.193 135.325C407.046 141.598 402.673 147.461 398.067 152.898C393.461 158.343 388.755 162.962 383.932 166.745C379.117 170.537 374.353 172.692 369.638 173.218C363.163 174.045 357.964 173.418 354.051 171.339C350.137 169.267 347.309 166.269 345.548 162.344C343.796 158.418 343.028 153.808 343.245 148.513C343.47 143.218 344.421 137.672 346.115 131.868C347.809 126.071 350.229 120.342 353.367 114.688C356.512 109.034 360.092 103.864 364.106 99.1617C368.119 94.468 372.467 90.5593 377.131 87.4441C381.796 84.3288 386.677 82.4747 391.767 81.8817C395.339 81.5476 398.126 82.0822 400.112 83.5103C402.098 84.9301 403.608 86.7926 404.643 89.081C405.669 91.3778 406.27 93.8082 406.445 96.3722C406.612 98.9446 406.645 101.083 406.537 102.786C405.969 106.386 404.976 109.961 403.558 113.51C402.139 117.06 400.37 120.467 398.259 123.741C396.148 127.015 393.695 130.022 390.908 132.761C388.121 135.501 385.15 137.906 381.996 139.994L381.988 139.986ZM393.086 98.0175C392.268 97.767 390.816 98.6272 388.747 100.59C386.669 102.561 384.433 105.242 382.013 108.624C379.593 112.007 377.298 115.932 375.12 120.392C372.942 124.844 371.39 129.362 370.464 133.922C370.781 134.256 371.415 134.223 372.392 133.797C374.828 132.87 377.14 131.158 379.317 128.652C381.495 126.147 383.465 123.382 385.234 120.359C387.003 117.335 388.48 114.362 389.681 111.439C390.874 108.516 391.784 106.152 392.393 104.365C392.919 102.853 393.278 101.684 393.461 100.874C393.645 100.064 393.745 99.4624 393.745 99.0782C393.745 98.6857 393.67 98.4435 393.52 98.3349C393.369 98.2347 393.228 98.1261 393.077 98.0175H393.086Z" fill="white"/>
<path d="M420.797 165.05C420.422 165.116 420.08 165.041 419.788 164.832C418.694 164.498 417.66 163.763 416.692 162.619C415.724 161.483 414.981 160.147 414.464 158.61C413.947 157.074 413.696 155.361 413.705 153.474C413.713 151.595 414.23 149.782 415.232 148.062C417.752 142.967 421.006 137.948 424.978 132.995C428.95 128.051 433.556 122.998 438.796 117.836C444.036 112.675 449.902 107.221 456.403 101.458C462.903 95.6956 469.987 89.39 477.664 82.5247C473.183 83.6606 469.053 84.9718 465.281 86.4418C461.509 87.92 457.779 89.5153 454.116 91.2274C450.445 92.9479 446.665 94.7769 442.776 96.7229C438.888 98.6689 434.524 100.698 429.684 102.803C427.431 103.313 425.862 102.469 424.978 100.281C424.093 98.0926 423.759 95.5202 423.985 92.5553C424.202 89.5988 424.961 86.7174 426.238 83.9028C427.523 81.0966 429.267 79.3093 431.47 78.5493C437.836 76.3193 443.803 74.5404 449.36 73.2291C454.909 71.9095 460.283 70.8906 465.481 70.1473C470.671 69.4123 475.895 68.9947 481.127 68.8945C486.367 68.8026 491.916 68.8444 497.791 69.0365L498.008 69.1952L499.71 68.9112C500.87 68.8444 502.088 69.1952 503.39 69.9552C504.683 70.7152 505.726 71.7425 506.527 73.037C507.328 74.3316 507.754 75.7514 507.82 77.2965C507.887 78.8416 507.328 80.37 506.152 81.8566C495.997 90.9518 486.267 99.9133 476.971 108.733C467.676 117.561 458.872 126.23 450.57 134.757C457.996 131.057 465.414 127.934 472.841 125.387C480.267 122.848 487.861 121.52 495.621 121.386C498.058 122.021 499.434 123.641 499.743 126.247C500.052 128.861 499.668 131.65 498.608 134.615C497.549 137.589 495.997 140.378 493.969 142.984C491.941 145.598 489.797 147.151 487.544 147.661C482.345 147.619 477.138 148.104 471.923 149.097C466.708 150.1 461.409 151.411 456.035 153.014C450.662 154.626 445.163 156.455 439.539 158.493C433.915 160.54 428.149 162.511 422.232 164.398C421.774 164.732 421.281 164.949 420.781 165.033L420.797 165.05Z" fill="white"/>
<path d="M644.718 1.46163C645.135 0.876994 646.587 0.63479 649.074 0.735013C651.552 0.843587 654.089 1.42822 656.659 2.4889C659.237 3.54959 661.373 5.07798 663.067 7.06573C664.761 9.05347 665.02 11.5757 663.843 14.6325C661.741 19.1425 659.179 24.5963 656.167 31.0105C653.146 37.4248 650.15 43.9643 647.18 50.6207C644.201 57.2855 641.397 63.6329 638.777 69.6463C636.148 75.668 634.171 80.5454 632.852 84.2704C632.769 84.546 632.527 85.2308 632.126 86.3416C631.726 87.4524 631.292 88.7219 630.816 90.1668C630.341 91.6117 629.873 93.0816 629.415 94.5849C628.956 96.0883 628.622 97.4413 628.438 98.6439C628.246 99.8466 628.263 100.715 628.488 101.266C628.705 101.809 629.231 101.826 630.049 101.3C630.508 100.966 631.184 100.364 632.085 99.4958C632.978 98.6356 633.946 97.6584 635.005 96.5727C636.057 95.4869 637.1 94.3761 638.143 93.2236C639.186 92.0794 640.079 91.0521 640.838 90.1417C644.284 85.9324 647.046 82.4163 649.107 79.61C651.168 76.8038 653.087 74.1396 654.882 71.634C656.676 69.1284 658.553 66.4475 660.539 63.5828C662.525 60.7181 665.162 57.0684 668.441 52.6252C668.858 52.0405 669.442 51.648 670.193 51.4559C670.944 51.2638 671.629 51.3139 672.263 51.5979C672.897 51.8818 673.381 52.2911 673.731 52.8173C674.073 53.3434 674.057 54.0283 673.681 54.8718C670.777 61.5867 667.448 68.477 663.701 75.526C659.947 82.5833 655.891 89.3901 651.544 95.963C649.716 98.9947 647.755 102.436 645.678 106.294C643.6 110.144 641.264 113.878 638.693 117.494C636.115 121.11 633.203 124.251 629.957 126.94C626.703 129.629 622.914 131.2 618.584 131.667C614.119 132.152 610.598 131.216 607.995 128.861C605.399 126.506 603.614 123.198 602.646 118.947C602.137 116.692 601.77 114.295 601.544 111.731C601.311 109.176 601.286 106.52 601.478 103.755C599.775 107.547 597.915 111.397 595.912 115.298C593.901 119.206 591.765 122.739 589.512 125.913C587.251 129.087 584.847 131.759 582.286 133.939C579.732 136.119 577.062 137.438 574.292 137.906C571.004 138.457 568.175 138.182 565.789 137.088C563.402 135.993 561.383 134.415 559.748 132.352C558.104 130.289 556.86 127.901 556.026 125.186C555.183 122.472 554.616 119.841 554.324 117.294C553.815 112.7 554.165 107.58 555.367 101.926C556.568 96.272 558.329 90.718 560.665 85.2643C562.993 79.8105 565.739 74.649 568.885 69.7715C572.022 64.9024 575.41 60.8601 579.023 57.6613C581.042 55.7655 583.738 53.8278 587.1 51.8317C590.463 49.844 593.976 48.5077 597.623 47.8312C601.269 47.1547 604.757 47.4554 608.078 48.7165C611.399 49.9776 614.028 52.9175 615.963 57.5277C618.024 52.7755 620.202 47.7644 622.505 42.5111C624.808 37.2577 627.187 32.0879 629.648 27.0016C632.11 21.9153 634.63 17.1798 637.2 12.7868C639.778 8.40203 642.29 4.63533 644.751 1.49503L644.718 1.46163ZM609.772 71.9514L611.065 69.2036C611.024 68.9531 611.04 68.6858 611.132 68.4102C612.1 65.6541 612.025 63.658 610.907 62.4135C609.789 61.1691 608.153 60.668 605.984 60.9019C603.964 61.2359 601.728 62.8144 599.283 65.6207C596.83 68.4352 594.385 71.8595 591.948 75.9018C589.512 79.9441 587.209 84.2537 585.056 88.8389C582.903 93.4157 581.076 97.6501 579.582 101.534C578.088 105.417 577.062 108.608 576.511 111.105C575.952 113.602 576.119 114.771 577.004 114.629C578.138 114.437 579.933 113.134 582.386 110.712C584.831 108.29 587.551 105.117 590.522 101.175C593.492 97.2408 596.638 92.7559 599.951 87.7197C603.263 82.6919 606.434 77.5805 609.463 72.4024L609.78 71.9597L609.772 71.9514Z" fill="white"/>
<path d="M727.611 28.3295C728.053 27.8701 729.38 27.678 731.599 27.7616C733.819 27.8451 736.013 28.3545 738.175 29.29C740.344 30.2254 742.105 31.6535 743.457 33.5661C744.817 35.4787 744.9 37.9675 743.724 41.016C742.439 43.438 741.254 45.6513 740.161 47.6474C739.068 49.6518 738.008 51.6479 736.973 53.6356C735.947 55.6234 734.904 57.7448 733.852 59.9998C732.801 62.2548 731.683 64.9107 730.506 67.9591C730.423 68.2347 730.181 68.9196 729.78 70.0304C729.38 71.1412 728.946 72.4106 728.47 73.8555C727.995 75.3004 727.527 76.7703 727.068 78.2737C726.601 79.777 726.276 81.13 726.092 82.3327C725.9 83.5353 725.917 84.4039 726.142 84.9551C726.359 85.5064 726.885 85.5147 727.703 84.9886C728.161 84.6545 728.846 84.0531 729.739 83.1845C730.631 82.3243 731.608 81.3471 732.659 80.2614C733.71 79.1757 734.753 78.0649 735.797 76.9123C736.84 75.7681 737.732 74.7408 738.492 73.8305C741.938 69.6211 744.692 66.1133 746.753 63.2988C748.814 60.4925 750.741 57.8283 752.527 55.3227C754.313 52.8172 756.198 50.1362 758.193 47.2715C760.179 44.4068 762.816 40.7571 766.095 36.3139C767.163 34.9692 768.473 34.6184 770.008 35.2699C771.544 35.9213 771.986 37.0154 771.335 38.5522C768.431 45.2671 765.135 52.149 761.447 59.1896C757.759 66.2303 753.737 73.037 749.381 79.61C747.429 82.6667 745.409 86.1161 743.323 89.9663C741.237 93.8165 738.909 97.5498 736.339 101.166C733.761 104.782 730.848 107.923 727.602 110.612C724.348 113.301 720.56 114.872 716.229 115.339C711.765 115.824 708.243 114.888 705.64 112.533C703.037 110.178 701.259 106.87 700.291 102.619C699.365 97.8421 699.165 92.3549 699.691 86.1662C697.88 90.0999 695.986 94.0921 694 98.1177C692.014 102.152 689.869 105.818 687.566 109.125C685.263 112.433 682.81 115.214 680.198 117.461C677.586 119.716 674.833 121.085 671.937 121.57C668.65 122.121 665.821 121.845 663.434 120.751C661.048 119.657 659.029 118.079 657.393 116.016C655.758 113.953 654.514 111.564 653.671 108.85C652.829 106.135 652.261 103.505 651.969 100.957C651.469 96.3638 651.811 91.2441 653.004 85.5899C654.205 79.9357 655.966 74.3817 658.303 68.9279C660.631 63.4741 663.409 58.3043 666.614 53.4185C669.818 48.5327 673.172 44.5071 676.66 41.325C678.805 39.4124 681.617 37.4163 685.096 35.3367C688.576 33.2654 692.206 31.9124 695.994 31.2777C699.782 30.643 703.32 31.094 706.625 32.614C709.929 34.1424 712.466 37.4831 714.235 42.6362L714.302 43.0121C717.731 37.9007 722.17 33.0065 727.611 28.3295ZM674.674 98.3181C675.809 98.126 677.545 96.8649 679.881 94.5264C682.217 92.1879 684.846 89.1227 687.783 85.3226C690.712 81.5225 693.791 77.213 697.012 72.3856C700.225 67.5666 703.354 62.5638 706.383 57.3856L709.253 51.2554C709.879 48.8166 709.62 47.0377 708.46 45.9352C707.301 44.8328 705.765 44.3734 703.854 44.5655C701.835 44.8996 699.599 46.4781 697.154 49.2843C694.701 52.0989 692.231 55.5315 689.727 59.5822C687.224 63.6412 684.896 67.9507 682.743 72.5276C680.59 77.1044 678.763 81.3388 677.269 85.2224C675.776 89.106 674.749 92.2964 674.199 94.7936C673.639 97.2909 673.806 98.4601 674.691 98.3181H674.674Z" fill="white"/>
<path d="M816.011 12.3941L816.42 12.5194C817.137 12.1436 818.522 12.1018 820.583 12.4108C822.645 12.7198 824.614 13.4298 826.483 14.5406C828.352 15.6597 829.812 17.1964 830.855 19.1675C831.898 21.1385 831.882 23.5689 830.814 26.4754C829.529 28.8974 828.469 31.0856 827.626 33.0483C826.783 35.011 826.007 36.957 825.29 38.8946C824.572 40.8322 823.788 42.9118 822.92 45.1334C822.052 47.355 821.034 49.9942 819.858 53.0427C819.791 53.4435 819.457 54.7047 818.831 56.8177C818.214 58.9391 817.63 61.1106 817.096 63.3405C816.561 65.5704 816.286 67.4413 816.278 68.9279C816.269 70.4229 816.904 70.7403 818.189 69.8717C818.648 69.5376 819.332 68.9363 820.225 68.0677C821.117 67.2074 822.094 66.2303 823.145 65.1445C824.197 64.0588 825.24 62.948 826.283 61.7954C827.326 60.6512 828.219 59.6239 828.978 58.7136C832.424 54.5042 835.178 50.9964 837.239 48.1819C839.3 45.3756 841.194 42.7197 842.921 40.2225C844.649 37.7253 846.501 35.0444 848.487 32.188C850.473 29.3234 853.11 25.6736 856.389 21.2304C856.932 20.6207 857.582 20.2198 858.333 20.0277C859.084 19.8356 859.769 19.8857 860.403 20.1697C861.037 20.4537 861.521 20.8629 861.871 21.3891C862.222 21.9152 862.205 22.6001 861.821 23.4436C858.792 30.1836 855.438 37.0739 851.741 44.1145C848.045 51.1551 844.031 57.9619 839.675 64.5348C837.714 67.5916 835.703 71.0409 833.617 74.8911C831.54 78.7413 829.203 82.4746 826.633 86.091C824.055 89.7074 821.143 92.8476 817.897 95.5369C814.651 98.2262 810.854 99.7964 806.523 100.264C802.193 100.732 798.721 99.7797 796.126 97.4245C793.523 95.0693 791.745 91.7619 790.777 87.5108C790.143 84.5041 789.951 81.2219 790.21 77.6723C790.46 74.1228 790.986 70.4646 791.787 66.698C792.588 62.9313 793.548 59.1646 794.674 55.4062C795.801 51.6479 796.927 48.1151 798.062 44.8077L799.038 41.3333C795.634 45.8016 792.555 50.8545 789.801 56.5087C787.048 62.1629 784.452 67.8171 782.024 73.488C779.596 79.1506 777.251 84.5459 774.99 89.6572C772.729 94.7769 770.434 98.886 768.098 102.01C766.27 105.041 764.109 106.895 761.631 107.572C759.144 108.248 756.866 108.173 754.78 107.355C752.702 106.536 751 105.1 749.682 103.045C748.363 100.991 748.013 98.6856 748.622 96.1132C751.876 80.6372 755.172 67.1406 758.51 55.6067C761.839 44.0811 765.169 33.4993 768.49 23.8529C769.733 21.1803 771.736 19.1925 774.498 17.8813C777.26 16.5784 779.93 16.0355 782.492 16.2527C785.062 16.4782 787.189 17.4136 788.9 19.0756C790.602 20.7376 791.128 23.1179 790.477 26.2165C789.401 29.1229 788.533 31.286 787.857 32.6892C787.181 34.1006 786.522 35.3785 785.871 36.531C785.22 37.6836 784.594 39.0199 784.01 40.5399C783.418 42.0683 782.725 44.3233 781.932 47.3133C784.369 42.4942 786.797 38.0009 789.217 33.825C791.637 29.6574 794.207 26.016 796.927 22.9008C799.647 19.7855 802.543 17.3217 805.622 15.5094C808.693 13.697 812.156 12.6697 816.002 12.4108L816.011 12.3941Z" fill="white"/>
<path d="M895.808 12.5112C895.766 14.5991 895.232 16.2778 894.214 17.5473C893.196 18.8252 892.136 19.6771 891.043 20.1197C889.95 20.5624 888.949 20.5707 888.031 20.1364C887.113 19.7021 886.654 18.7082 886.654 17.1548C887.305 16.3948 887.572 15.6682 887.455 14.975C887.338 14.2817 887.013 13.6888 886.479 13.1877C885.936 12.6949 885.244 12.3859 884.384 12.2689C883.517 12.152 882.724 12.2272 881.99 12.4777C879.945 13.4716 878.593 15.0919 877.934 17.3385C877.267 19.5935 876.908 21.6982 876.849 23.6525C876.849 25.2143 877.392 27.1019 878.477 29.3235C879.561 31.5451 880.821 33.9003 882.282 36.3808C886.721 32.6559 891.085 29.0729 895.374 25.6236C899.663 22.1826 903.61 18.9922 907.206 16.0523C910.803 13.1125 913.915 10.5819 916.544 8.45214C919.172 6.33077 921.033 4.65204 922.126 3.43267C923.428 2.69771 924.679 2.78123 925.864 3.68323C927.049 4.59358 927.233 5.69603 926.415 6.99892C920.924 13.7556 914.825 20.5206 908.099 27.294C901.374 34.0673 894.99 40.682 888.932 47.1463C891.143 51.0634 892.612 54.4542 893.355 57.3106C894.489 63.3573 893.396 69.2537 890.075 74.9998C886.754 80.7459 881.673 85.6902 874.839 89.816C869.982 92.5721 865.585 94.2175 861.654 94.7436C857.724 95.2698 854.311 95.061 851.433 94.1172C848.554 93.1735 846.234 91.737 844.49 89.8244C842.746 87.9118 841.628 85.8907 841.144 83.7609C840.894 82.2492 841.211 80.4369 842.087 78.3489C842.971 76.2526 844.373 73.9725 846.301 71.5087C848.228 69.0449 850.506 66.3974 853.143 63.5494C855.78 60.7098 858.667 57.795 861.805 54.7967C859.235 50.295 856.973 45.476 855.021 40.3479C853.06 35.2199 852.401 30.2672 853.026 25.49C853.193 24.162 853.944 22.2578 855.279 19.7606C856.614 17.2717 858.425 14.7244 860.72 12.1353C863.015 9.54624 865.735 7.17431 868.872 5.02788C872.018 2.88145 875.464 1.36141 879.203 0.476112C881.347 0.116981 883.458 -0.0417042 885.544 5.51702e-05C887.622 0.0418145 889.458 0.517871 891.035 1.41987C892.612 2.32187 893.847 3.67488 894.731 5.47888C895.616 7.27453 895.975 9.62141 895.808 12.5028V12.5112ZM871.209 68.0344C868.388 71.3584 865.96 73.9141 863.924 75.6763C861.888 77.4469 861.254 78.7248 862.03 79.5015C863.44 80.9547 865.067 81.5894 866.92 81.4141C868.772 81.2387 870.341 80.5538 871.634 79.3595C872.928 78.1735 873.737 76.6034 874.062 74.6657C874.388 72.7281 873.67 70.7404 871.901 68.6942L871.209 68.0344Z" fill="white"/>
<path d="M273.352 291.347C272.885 291.689 272.526 291.873 272.276 291.914C271.208 294.821 270.332 297.368 269.656 299.556C268.98 301.745 268.438 303.524 268.012 304.893C267.628 306.514 267.244 308.301 266.861 310.247C266.468 312.193 266.235 314.055 266.135 315.818C266.043 317.588 266.168 319.125 266.51 320.428C266.852 321.731 267.62 322.416 268.796 322.482C271.275 322.591 274.053 321.739 277.124 319.927C280.195 318.114 283.332 315.742 286.545 312.803C289.749 309.863 292.92 306.514 296.057 302.747C299.187 298.98 302.166 295.239 304.986 291.522C307.798 287.805 310.385 284.231 312.729 280.781C315.074 277.34 316.96 274.459 318.395 272.146C318.938 271.536 319.589 271.135 320.331 270.943C321.082 270.751 321.766 270.801 322.401 271.085C323.035 271.369 323.527 271.803 323.886 272.396C324.245 272.989 324.295 273.691 324.044 274.509C322.426 278.025 320.289 282.343 317.644 287.455C314.991 292.574 311.97 297.945 308.557 303.574C305.144 309.203 301.415 314.832 297.359 320.436C293.304 326.049 289.065 331.168 284.651 335.804C280.237 340.439 275.689 344.314 271.024 347.429C266.352 350.545 261.729 352.357 257.139 352.866C252.809 353.334 248.92 352.582 245.482 350.628C242.044 348.674 239.833 345.5 238.84 341.124C237.872 336.873 237.856 330.934 238.79 323.309C239.725 315.692 241.41 307.324 243.847 298.22C246.283 289.117 249.421 279.696 253.243 269.974C257.073 260.253 261.328 251.166 266.018 242.722C270.707 234.278 275.797 226.904 281.296 220.598C286.795 214.292 292.469 209.999 298.319 207.728C303.684 205.665 308.032 205.13 311.378 206.132C314.724 207.135 317.135 209.164 318.621 212.229C320.106 215.294 320.748 219.178 320.565 223.88C320.381 228.582 319.463 233.61 317.82 238.947C316.176 244.284 313.948 249.754 311.119 255.35C308.29 260.954 304.944 266.149 301.072 270.951C297.201 275.754 292.912 279.98 288.205 283.613C283.491 287.254 278.543 289.835 273.344 291.355L273.352 291.347ZM304.452 229.284C302.015 231.773 299.512 235.047 296.942 239.106C294.372 243.173 291.844 247.616 289.34 252.452C286.837 257.288 284.459 262.29 282.214 267.469C279.961 272.647 277.875 277.608 275.939 282.343C280.988 279.161 285.418 275.403 289.232 271.068C293.045 266.734 296.174 262.148 298.619 257.329C301.056 252.51 302.783 247.675 303.793 242.831C304.802 237.986 305.019 233.476 304.452 229.284Z" fill="white"/>
<path d="M340.299 307.825C337.938 309.261 335.693 310.155 333.549 310.514C331.404 310.873 329.502 310.739 327.841 310.105L327.875 310.297C327.683 313.053 327.933 315.709 328.617 318.256C329.301 320.803 330.97 322.248 333.615 322.582C335.593 322.775 338.155 321.597 341.301 319.058C344.446 316.519 347.826 313.262 351.439 309.286C355.06 305.311 358.782 300.826 362.62 295.831C366.459 290.845 370.064 286.018 373.443 281.366C376.814 276.714 379.835 272.446 382.497 268.563C385.159 264.679 387.178 261.839 388.571 260.052C389.114 259.442 389.74 259.075 390.432 258.966C391.125 258.858 391.784 258.908 392.401 259.125C393.027 259.35 393.47 259.693 393.745 260.169C394.02 260.645 393.995 261.104 393.678 261.547C392.877 262.984 391.342 265.832 389.072 270.108C386.802 274.384 384.007 279.395 380.678 285.141C377.357 290.887 373.618 296.9 369.48 303.173C365.332 309.445 360.96 315.308 356.354 320.745C351.748 326.19 347.033 330.809 342.219 334.592C337.404 338.384 332.639 340.539 327.925 341.065C321.449 341.892 316.251 341.266 312.337 339.186C308.424 337.115 305.587 334.116 303.835 330.191C302.082 326.266 301.315 321.655 301.531 316.36C301.757 311.065 302.708 305.52 304.402 299.715C306.096 293.919 308.516 288.189 311.653 282.535C314.799 276.881 318.379 271.711 322.392 267.009C326.406 262.315 330.753 258.407 335.418 255.291C340.082 252.176 344.964 250.322 350.054 249.729C353.625 249.395 356.412 249.93 358.398 251.358C360.384 252.778 361.895 254.64 362.929 256.928C363.956 259.225 364.556 261.656 364.732 264.22C364.898 266.792 364.932 268.93 364.823 270.634C364.256 274.234 363.263 277.808 361.844 281.358C360.426 284.907 358.657 288.315 356.546 291.589C354.435 294.863 351.981 297.869 349.194 300.609C346.407 303.348 343.437 305.753 340.283 307.841L340.299 307.825ZM351.397 265.857C350.58 265.606 349.128 266.466 347.058 268.429C344.989 270.4 342.744 273.081 340.324 276.463C337.904 279.846 335.61 283.771 333.432 288.231C331.254 292.683 329.702 297.201 328.784 301.761C329.101 302.095 329.735 302.062 330.712 301.636C333.148 300.709 335.46 298.997 337.637 296.491C339.815 293.986 341.785 291.221 343.554 288.198C345.314 285.174 346.8 282.201 348.001 279.278C349.203 276.355 350.104 273.991 350.713 272.204C351.239 270.692 351.598 269.523 351.781 268.713C351.965 267.903 352.065 267.301 352.065 266.917C352.065 266.525 351.99 266.283 351.84 266.174C351.689 266.074 351.548 265.965 351.397 265.857Z" fill="white"/>
<path d="M428.007 251.5C427.965 253.588 427.431 255.266 426.413 256.536C425.395 257.814 424.335 258.666 423.242 259.108C422.149 259.551 421.148 259.559 420.23 259.125C419.312 258.691 418.853 257.697 418.853 256.143C419.504 255.383 419.771 254.657 419.654 253.964C419.537 253.27 419.212 252.677 418.678 252.176C418.135 251.684 417.443 251.375 416.583 251.258C415.716 251.141 414.923 251.216 414.189 251.466C412.144 252.46 410.792 254.081 410.133 256.327C409.466 258.582 409.107 260.687 409.048 262.641C409.048 264.203 409.591 266.091 410.676 268.312C411.76 270.534 413.02 272.889 414.481 275.369C418.92 271.645 423.284 268.062 427.573 264.612C431.862 261.171 435.809 257.981 439.405 255.041C443.002 252.101 446.114 249.571 448.743 247.441C451.371 245.319 453.232 243.641 454.325 242.421C455.627 241.686 456.878 241.77 458.063 242.672C459.248 243.582 459.432 244.685 458.614 245.988C453.123 252.744 447.024 259.509 440.298 266.283C433.572 273.056 427.189 279.671 421.131 286.135C423.342 290.052 424.811 293.443 425.554 296.299C426.688 302.346 425.595 308.242 422.274 313.988C418.953 319.735 413.871 324.679 407.037 328.805C402.181 331.561 397.784 333.206 393.853 333.732C389.923 334.258 386.51 334.05 383.632 333.106C380.753 332.162 378.433 330.726 376.689 328.813C374.945 326.9 373.827 324.879 373.343 322.75C373.093 321.238 373.41 319.426 374.286 317.338C375.17 315.241 376.572 312.961 378.5 310.497C380.427 308.034 382.705 305.386 385.342 302.538C387.979 299.698 390.866 296.784 394.004 293.785C391.433 289.284 389.172 284.465 387.22 279.337C385.259 274.209 384.599 269.256 385.225 264.479C385.392 263.151 386.143 261.246 387.478 258.749C388.813 256.26 390.624 253.713 392.919 251.124C395.213 248.535 397.934 246.163 401.071 244.017C404.217 241.87 407.663 240.35 411.402 239.465C413.546 239.106 415.657 238.947 417.743 238.989C419.821 239.03 421.657 239.507 423.234 240.409C424.811 241.311 426.046 242.664 426.93 244.468C427.815 246.263 428.174 248.61 428.007 251.491V251.5ZM403.408 307.023C400.587 310.347 398.159 312.903 396.123 314.665C394.087 316.436 393.453 317.713 394.229 318.49C395.639 319.943 397.266 320.578 399.119 320.403C400.971 320.227 402.54 319.542 403.833 318.348C405.127 317.162 405.936 315.592 406.261 313.654C406.587 311.717 405.869 309.729 404.1 307.683L403.408 307.023Z" fill="white"/>
<path d="M518.685 250.381C518.218 250.723 517.867 250.907 517.617 250.949C516.54 253.855 515.673 256.402 514.997 258.591C514.321 260.779 513.778 262.558 513.353 263.927C512.977 265.548 512.594 267.335 512.201 269.281C511.809 271.227 511.576 273.089 511.475 274.852C511.384 276.622 511.509 278.159 511.859 279.462C512.201 280.765 512.969 281.45 514.146 281.516C516.624 281.625 519.403 280.773 522.473 278.961C525.544 277.148 528.681 274.776 531.894 271.837C535.098 268.897 538.269 265.548 541.407 261.781C544.544 258.014 547.515 254.273 550.335 250.556C553.147 246.839 555.734 243.265 558.079 239.816C560.423 236.375 562.309 233.493 563.744 231.18C564.287 230.57 564.938 230.169 565.68 229.977C566.431 229.785 567.116 229.835 567.75 230.119C568.384 230.403 568.876 230.837 569.235 231.43C569.594 232.023 569.644 232.725 569.394 233.543C567.775 237.059 565.639 241.377 562.993 246.489C560.34 251.608 557.319 256.979 553.906 262.608C550.502 268.237 546.764 273.866 542.708 279.47C538.653 285.083 534.414 290.202 530 294.838C525.586 299.473 521.038 303.348 516.374 306.463C511.701 309.579 507.078 311.391 502.489 311.9C498.158 312.368 494.269 311.617 490.831 309.662C487.394 307.708 485.182 304.542 484.189 300.158C483.221 295.907 483.205 289.968 484.139 282.343C485.074 274.726 486.759 266.358 489.196 257.254C491.633 248.151 494.77 238.73 498.592 229.008C502.422 219.287 506.677 210.2 511.367 201.756C516.056 193.312 521.147 185.938 526.654 179.632C532.153 173.326 537.827 169.033 543.676 166.762C549.042 164.699 553.389 164.164 556.735 165.167C560.081 166.169 562.493 168.198 563.978 171.263C565.463 174.329 566.106 178.212 565.922 182.914C565.73 187.616 564.821 192.644 563.177 197.981C561.541 203.318 559.305 208.788 556.476 214.384C553.648 219.988 550.302 225.183 546.43 229.985C542.558 234.788 538.269 239.014 533.555 242.655C528.84 246.297 523.892 248.877 518.693 250.397L518.685 250.381ZM549.784 188.318C547.348 190.807 544.844 194.081 542.274 198.14C539.713 202.207 537.176 206.65 534.673 211.486C532.169 216.322 529.791 221.325 527.547 226.503C525.294 231.681 523.208 236.642 521.272 241.377C526.32 238.195 530.751 234.437 534.564 230.102C538.378 225.768 541.507 221.183 543.952 216.363C546.388 211.544 548.115 206.709 549.125 201.865C550.135 197.021 550.352 192.511 549.784 188.318Z" fill="white"/>
<path d="M585.632 266.859C583.279 268.295 581.026 269.189 578.881 269.548C576.737 269.907 574.834 269.774 573.174 269.139L573.207 269.331C573.015 272.087 573.265 274.743 573.95 277.29C574.634 279.838 576.294 281.282 578.948 281.617C580.925 281.809 583.487 280.631 586.633 278.092C589.779 275.553 593.158 272.296 596.78 268.32C600.393 264.345 604.123 259.86 607.961 254.866C611.8 249.879 615.404 245.052 618.784 240.4C622.155 235.748 625.176 231.48 627.837 227.597C630.499 223.713 632.519 220.873 633.912 219.086C634.454 218.476 635.08 218.109 635.773 218C636.465 217.892 637.125 217.942 637.742 218.159C638.36 218.385 638.81 218.727 639.086 219.203C639.361 219.679 639.336 220.138 639.027 220.573C638.226 222.009 636.691 224.857 634.421 229.133C632.151 233.41 629.356 238.421 626.035 244.167C622.714 249.913 618.976 255.926 614.837 262.198C610.69 268.471 606.317 274.334 601.711 279.771C597.105 285.216 592.399 289.835 587.576 293.618C582.761 297.41 577.997 299.565 573.282 300.091C566.807 300.918 561.608 300.291 557.695 298.212C553.781 296.14 550.953 293.142 549.192 289.217C547.44 285.291 546.672 280.681 546.889 275.386C547.114 270.091 548.065 264.545 549.759 258.741C551.453 252.945 553.873 247.215 557.011 241.561C560.156 235.907 563.736 230.737 567.75 226.035C571.763 221.341 576.111 217.432 580.775 214.317C585.44 211.202 590.321 209.348 595.411 208.755C598.983 208.421 601.77 208.955 603.756 210.383C605.742 211.803 607.252 213.666 608.287 215.954C609.313 218.251 609.914 220.681 610.089 223.245C610.256 225.818 610.289 227.956 610.181 229.66C609.613 233.259 608.62 236.834 607.202 240.383C605.783 243.933 604.014 247.341 601.903 250.614C599.792 253.888 597.339 256.895 594.552 259.634C591.765 262.374 588.794 264.779 585.64 266.867L585.632 266.859ZM596.73 224.891C595.912 224.64 594.46 225.5 592.391 227.463C590.313 229.434 588.077 232.115 585.657 235.498C583.237 238.88 580.942 242.805 578.764 247.265C576.586 251.717 575.034 256.235 574.108 260.795C574.425 261.129 575.059 261.096 576.036 260.67C578.472 259.743 580.784 258.031 582.961 255.525C585.139 253.02 587.109 250.255 588.878 247.232C590.647 244.209 592.124 241.235 593.325 238.312C594.518 235.389 595.428 233.025 596.037 231.238C596.563 229.726 596.922 228.557 597.105 227.747C597.289 226.937 597.389 226.336 597.389 225.951C597.389 225.559 597.314 225.317 597.164 225.208C597.013 225.108 596.872 224.999 596.721 224.891H596.73Z" fill="white"/>
<path d="M711.982 184.418C706.241 183.432 700.125 183.507 693.633 184.66C687.141 185.812 680.382 187.098 673.364 188.535C671.153 193.187 668.858 198.081 666.472 203.218C664.085 208.354 661.832 213.34 659.721 218.176C657.61 223.011 655.674 227.555 653.922 231.806C652.161 236.057 650.801 239.565 649.842 242.321C649.65 242.739 649.182 244.025 648.44 246.155C647.689 248.293 646.988 250.489 646.329 252.736C645.661 254.991 645.294 256.87 645.227 258.373C645.152 259.877 645.753 260.202 647.038 259.334C647.497 259 648.148 258.407 648.974 257.546C649.808 256.695 650.743 255.726 651.794 254.64C652.845 253.554 653.889 252.443 654.932 251.291C655.975 250.147 656.867 249.119 657.627 248.209C661.073 244 663.86 240.484 665.988 237.661C668.107 234.838 670.035 232.182 671.762 229.685C673.489 227.187 675.342 224.506 677.328 221.65C679.314 218.785 681.951 215.136 685.23 210.692C685.772 210.083 686.423 209.682 687.166 209.49C687.917 209.298 688.601 209.348 689.235 209.632C689.869 209.916 690.353 210.325 690.704 210.851C691.046 211.377 691.029 212.062 690.654 212.906C687.625 219.646 684.27 226.536 680.574 233.577C676.877 240.617 672.864 247.424 668.508 253.997C666.555 257.054 664.536 260.503 662.45 264.353C660.364 268.203 658.036 271.937 655.466 275.553C652.887 279.169 649.975 282.31 646.729 284.999C643.483 287.68 639.686 289.258 635.356 289.726C631.025 290.194 627.137 289.442 623.699 287.488C620.261 285.534 618.05 282.36 617.057 277.983C615.813 272.087 615.772 265.773 616.915 259.016C618.058 252.268 620.578 244.225 624.466 234.871C625.476 232.366 626.678 229.476 628.079 226.185C629.481 222.903 631.017 219.303 632.702 215.386C634.388 211.469 636.148 207.444 637.984 203.309C639.828 199.175 641.756 194.991 643.775 190.757C639.695 190.397 635.806 189.621 632.101 188.418C631.133 188.059 630.458 187.524 630.082 186.806C629.698 186.088 629.623 185.42 629.848 184.802C630.065 184.184 630.533 183.649 631.234 183.206C631.935 182.764 632.811 182.588 633.87 182.672C638.627 183.181 643.333 183.039 648.006 182.263C650.259 177.861 652.545 173.71 654.881 169.818C657.218 165.926 659.429 162.502 661.532 159.554C662.475 158.226 664.185 157.583 666.664 157.625C669.134 157.666 671.57 158.268 673.965 159.42C676.36 160.581 678.354 162.227 679.948 164.365C681.533 166.503 681.867 169.075 680.941 172.082C684.496 170.837 688.134 169.71 691.855 168.699C695.577 167.689 699.54 166.962 703.746 166.519C705.891 166.937 707.851 168.207 709.629 170.311C711.406 172.416 712.775 174.587 713.734 176.834C714.694 179.081 715.078 181.027 714.902 182.68C714.719 184.334 713.751 184.919 711.982 184.434V184.418Z" fill="white"/>
<path d="M763.283 175.849C757.542 174.863 751.425 174.938 744.934 176.091C738.442 177.243 731.691 178.529 724.665 179.966C722.454 184.618 720.159 189.512 717.773 194.649C715.386 199.785 713.133 204.771 711.022 209.607C708.911 214.443 706.975 218.986 705.223 223.237C703.471 227.488 702.102 230.996 701.142 233.752C700.951 234.17 700.483 235.456 699.741 237.586C698.99 239.724 698.289 241.92 697.629 244.167C696.962 246.422 696.595 248.301 696.528 249.804C696.453 251.308 697.054 251.633 698.339 250.765C698.798 250.431 699.449 249.829 700.283 248.977C701.109 248.126 702.052 247.157 703.103 246.071C704.155 244.985 705.198 243.874 706.241 242.722C707.284 241.578 708.177 240.55 708.936 239.64C712.382 235.431 715.169 231.915 717.297 229.092C719.425 226.269 721.344 223.613 723.071 221.116C724.799 218.618 726.651 215.938 728.637 213.081C730.623 210.216 733.26 206.567 736.539 202.124C737.082 201.514 737.732 201.113 738.483 200.921C739.234 200.729 739.919 200.779 740.553 201.063C741.187 201.347 741.671 201.756 742.021 202.282C742.372 202.808 742.355 203.493 741.971 204.337C738.942 211.077 735.588 217.967 731.891 225.008C728.203 232.048 724.181 238.855 719.825 245.428C717.865 248.485 715.854 251.934 713.767 255.784C711.69 259.634 709.353 263.368 706.783 266.984C704.205 270.6 701.293 273.741 698.047 276.43C694.792 279.119 691.004 280.69 686.673 281.157C682.343 281.625 678.454 280.873 675.016 278.919C671.578 276.965 669.367 273.799 668.374 269.414C667.131 263.518 667.089 257.196 668.232 250.447C669.375 243.699 671.895 235.656 675.784 226.302C676.794 223.797 677.995 220.907 679.397 217.616C680.791 214.334 682.334 210.734 684.02 206.817C685.705 202.9 687.466 198.875 689.302 194.74C691.146 190.606 693.073 186.422 695.093 182.188C691.012 181.828 687.124 181.052 683.419 179.849C682.451 179.49 681.775 178.955 681.4 178.237C681.016 177.519 680.941 176.851 681.166 176.233C681.383 175.615 681.85 175.08 682.551 174.638C683.252 174.195 684.128 174.019 685.188 174.103C689.944 174.612 694.651 174.47 699.323 173.694C701.576 169.292 703.863 165.141 706.199 161.249C708.536 157.358 710.755 153.933 712.858 150.985C713.801 149.657 715.511 149.014 717.981 149.056C720.451 149.098 722.888 149.699 725.283 150.851C727.677 152.012 729.672 153.658 731.266 155.796C732.851 157.934 733.185 160.506 732.259 163.513C735.813 162.268 739.451 161.141 743.173 160.13C746.895 159.12 750.858 158.393 755.064 157.95C757.208 158.368 759.169 159.638 760.946 161.742C762.724 163.847 764.092 166.018 765.052 168.265C766.011 170.512 766.395 172.458 766.22 174.103C766.036 175.757 765.069 176.341 763.3 175.857L763.283 175.849Z" fill="white"/>
<path d="M786.063 178.279L786.472 178.404C787.189 178.028 788.508 177.97 790.435 178.229C792.355 178.496 794.257 179.181 796.135 180.3C798.004 181.419 799.464 182.956 800.507 184.927C801.55 186.898 801.667 189.379 800.874 192.369C799.973 195.509 798.579 198.825 796.694 202.316C794.808 205.815 793.356 208.747 792.321 211.127C791.078 213.799 789.084 215.854 786.338 217.282C783.593 218.719 780.814 219.571 778.011 219.846C775.199 220.122 772.704 219.921 770.517 219.245C768.331 218.568 767.23 217.458 767.238 215.896C768.139 212.764 769.082 209.649 770.058 206.567C771.035 203.485 772.178 200.403 773.48 197.33C770.509 199.768 767.822 202.884 765.402 206.659C762.982 210.442 760.78 214.509 758.777 218.869C756.783 223.229 754.939 227.755 753.253 232.449C751.567 237.143 749.899 241.711 748.238 246.138C746.577 250.573 744.925 254.673 743.29 258.457C741.646 262.24 739.935 265.381 738.15 267.886C736.322 270.918 734.161 272.772 731.683 273.448C729.196 274.125 726.918 274.05 724.84 273.231C722.754 272.413 721.06 270.976 719.742 268.922C718.424 266.867 718.073 264.562 718.682 261.99C721.945 246.514 725.233 233.017 728.57 221.483C731.9 209.958 735.229 199.376 738.55 189.729C739.785 187.057 741.788 185.069 744.558 183.758C747.32 182.455 749.99 181.912 752.56 182.129C755.13 182.355 757.258 183.29 758.96 184.952C760.663 186.614 761.188 188.994 760.538 192.093C759.469 194.999 758.593 197.163 757.917 198.566C757.242 199.977 756.582 201.255 755.931 202.408C755.281 203.56 754.655 204.896 754.071 206.416C753.478 207.945 752.786 210.2 751.993 213.19C754.43 208.371 756.858 203.877 759.278 199.701C761.697 195.534 764.267 191.893 766.988 188.777C769.708 185.662 772.604 183.198 775.683 181.386C778.753 179.573 782.216 178.546 786.063 178.287V178.279Z" fill="white"/>
<path d="M834.193 225.35C831.832 226.787 829.587 227.68 827.443 228.039C825.298 228.399 823.396 228.265 821.735 227.63L821.768 227.822C821.576 230.578 821.827 233.234 822.511 235.782C823.195 238.329 824.864 239.774 827.509 240.108C829.487 240.3 832.049 239.122 835.194 236.583C838.34 234.044 841.72 230.787 845.333 226.812C848.954 222.836 852.676 218.351 856.514 213.357C860.353 208.371 863.957 203.543 867.337 198.891C870.708 194.239 873.729 189.972 876.391 186.088C879.052 182.204 881.072 179.365 882.465 177.577C883.008 176.968 883.633 176.6 884.326 176.492C885.019 176.383 885.678 176.433 886.295 176.65C886.921 176.876 887.363 177.218 887.639 177.694C887.914 178.17 887.889 178.63 887.572 179.072C886.771 180.509 885.236 183.357 882.966 187.633C880.696 191.909 877.901 196.92 874.571 202.666C871.25 208.413 867.512 214.426 863.373 220.698C859.226 226.97 854.854 232.833 850.248 238.27C845.642 243.716 840.927 248.334 836.112 252.118C831.298 255.91 826.533 258.064 821.818 258.591C815.343 259.417 810.145 258.791 806.231 256.711C802.318 254.64 799.481 251.642 797.728 247.716C795.976 243.791 795.208 239.181 795.425 233.886C795.651 228.591 796.602 223.045 798.296 217.24C799.99 211.444 802.409 205.715 805.547 200.061C808.693 194.406 812.273 189.237 816.286 184.535C820.3 179.841 824.647 175.932 829.312 172.817C833.976 169.702 838.858 167.847 843.948 167.255C847.519 166.92 850.306 167.455 852.292 168.883C854.278 170.303 855.788 172.165 856.823 174.454C857.849 176.751 858.45 179.181 858.625 181.745C858.792 184.317 858.826 186.455 858.717 188.159C858.15 191.759 857.157 195.333 855.738 198.883C854.32 202.433 852.551 205.84 850.44 209.114C848.328 212.388 845.875 215.395 843.088 218.134C840.301 220.873 837.331 223.279 834.176 225.367L834.193 225.35ZM845.291 183.382C844.473 183.131 843.021 183.992 840.952 185.954C838.883 187.925 836.638 190.606 834.218 193.989C831.798 197.371 829.504 201.297 827.326 205.757C825.148 210.208 823.596 214.727 822.678 219.287C822.995 219.621 823.629 219.587 824.605 219.161C827.042 218.234 829.353 216.522 831.531 214.017C833.709 211.511 835.678 208.747 837.447 205.723C839.208 202.7 840.693 199.727 841.895 196.803C843.097 193.88 843.998 191.517 844.607 189.729C845.133 188.218 845.491 187.048 845.675 186.238C845.858 185.428 845.959 184.827 845.959 184.443C845.959 184.05 845.884 183.808 845.733 183.699C845.583 183.599 845.441 183.491 845.291 183.382Z" fill="white"/>
<path d="M921.892 169.033C921.851 171.121 921.316 172.8 920.298 174.07C919.28 175.347 918.221 176.199 917.128 176.642C916.034 177.085 915.033 177.093 914.115 176.659C913.197 176.224 912.738 175.231 912.738 173.677C913.389 172.917 913.656 172.19 913.54 171.497C913.423 170.804 913.097 170.211 912.563 169.71C912.021 169.217 911.328 168.908 910.469 168.791C909.601 168.674 908.808 168.75 908.074 169C906.03 169.994 904.678 171.614 904.019 173.861C903.351 176.116 902.992 178.221 902.934 180.175C902.934 181.737 903.476 183.624 904.561 185.846C905.646 188.067 906.906 190.423 908.366 192.903C912.805 189.178 917.169 185.595 921.458 182.146C925.747 178.705 929.694 175.515 933.291 172.575C936.887 169.635 940 167.104 942.628 164.974C945.256 162.853 947.117 161.174 948.21 159.955C949.512 159.22 950.764 159.304 951.949 160.206C953.133 161.116 953.317 162.218 952.499 163.521C947.009 170.278 940.909 177.043 934.183 183.816C927.458 190.59 921.074 197.204 915.016 203.669C917.228 207.586 918.696 210.977 919.439 213.833C920.574 219.88 919.481 225.776 916.16 231.522C912.839 237.268 907.757 242.213 900.923 246.338C896.067 249.094 891.669 250.74 887.739 251.266C883.809 251.792 880.396 251.583 877.517 250.64C874.638 249.696 872.318 248.259 870.575 246.347C868.831 244.434 867.712 242.413 867.228 240.283C866.978 238.772 867.295 236.959 868.171 234.871C869.056 232.775 870.458 230.495 872.385 228.031C874.313 225.567 876.591 222.92 879.228 220.072C881.864 217.232 884.752 214.317 887.889 211.319C885.319 206.817 883.058 201.998 881.105 196.87C879.144 191.742 878.485 186.79 879.111 182.012C879.278 180.684 880.029 178.78 881.364 176.283C882.699 173.794 884.51 171.247 886.804 168.658C889.099 166.069 891.819 163.697 894.957 161.55C898.103 159.404 901.549 157.884 905.287 156.998C907.431 156.639 909.543 156.481 911.629 156.522C913.706 156.564 915.542 157.04 917.119 157.942C918.696 158.844 919.931 160.197 920.816 162.001C921.7 163.797 922.059 166.144 921.892 169.025V169.033ZM897.293 224.557C894.473 227.881 892.044 230.436 890.008 232.199C887.972 233.969 887.338 235.247 888.114 236.024C889.524 237.477 891.152 238.112 893.004 237.936C894.856 237.761 896.425 237.076 897.719 235.882C899.012 234.696 899.821 233.126 900.147 231.188C900.472 229.25 899.755 227.263 897.986 225.216L897.293 224.557Z" fill="white"/>
</g>
<defs>
<clipPath id="clip0_40_370">
<rect width="953" height="353" fill="white"/>
</clipPath>
</defs>
</svg>
