<svg width="62" height="85" viewBox="0 0 62 85" fill="none" xmlns="http://www.w3.org/2000/svg">
<path d="M12 2V85H60.2921C60.745 85 61.1795 84.8215 61.4998 84.5039C61.8201 84.1862 62 83.7554 62 83.3061V3.69388C62 3.24463 61.8201 2.81379 61.4998 2.49612C61.1795 2.17846 60.745 2 60.2921 2H12Z" fill="#0D0630"/>
<path d="M12 85H1.70455C1.25247 85 0.818913 84.8215 0.499248 84.5039C0.179584 84.1862 0 83.7554 0 83.3061V3.69388C0 3.24463 0.179584 2.81379 0.499248 2.49612C0.818913 2.17846 1.25247 2 1.70455 2H12V85Z" fill="#18314F"/>
<path d="M12 75H0V78H12V75Z" fill="#0D0630"/>
<path d="M12 80H0V82H12V80Z" fill="#0D0630"/>
<path d="M12 9H0V12H12V9Z" fill="#0D0630"/>
<path d="M12 5H0V7H12V5Z" fill="#0D0630"/>
<path fill-rule="evenodd" clip-rule="evenodd" d="M6 31C6.55228 31 7 31.4477 7 32V62C7 62.5523 6.55228 63 6 63C5.44772 63 5 62.5523 5 62V32C5 31.4477 5.44772 31 6 31Z" fill="#0D0630"/>
<path d="M20 1.50296V20.9747L24.8991 17.0668L30 21V1.50296C30 1.10451 29.8486 0.722376 29.5792 0.440627C29.3098 0.158879 28.9444 0.000592882 28.5634 0.000592882H21.477C21.285 -0.00505027 21.0938 0.0296389 20.9148 0.102609C20.7358 0.17558 20.5727 0.28535 20.4349 0.425424C20.2972 0.565498 20.1878 0.733031 20.1131 0.918113C20.0384 1.1032 19.9999 1.30207 20 1.50296Z" fill="#E6F9AF"/>
<path d="M27.2668 40.624C27.2668 41.128 27.1428 41.568 26.8948 41.944C26.6468 42.32 26.2868 42.612 25.8148 42.82C25.3508 43.02 24.7828 43.12 24.1108 43.12C23.8148 43.12 23.5228 43.1 23.2348 43.06C22.9548 43.02 22.6828 42.964 22.4188 42.892C22.1628 42.812 21.9188 42.716 21.6868 42.604V40.912C22.0948 41.088 22.5148 41.252 22.9468 41.404C23.3868 41.548 23.8228 41.62 24.2548 41.62C24.5508 41.62 24.7868 41.58 24.9628 41.5C25.1468 41.42 25.2788 41.312 25.3588 41.176C25.4468 41.04 25.4908 40.884 25.4908 40.708C25.4908 40.492 25.4148 40.308 25.2628 40.156C25.1188 40.004 24.9228 39.864 24.6748 39.736C24.4268 39.6 24.1428 39.456 23.8228 39.304C23.6228 39.208 23.4068 39.096 23.1748 38.968C22.9428 38.832 22.7188 38.668 22.5028 38.476C22.2948 38.276 22.1228 38.036 21.9868 37.756C21.8508 37.476 21.7828 37.14 21.7828 36.748C21.7828 36.236 21.8988 35.8 22.1308 35.44C22.3708 35.072 22.7068 34.792 23.1388 34.6C23.5788 34.408 24.0948 34.312 24.6868 34.312C25.1348 34.312 25.5588 34.364 25.9588 34.468C26.3668 34.572 26.7908 34.72 27.2308 34.912L26.6428 36.328C26.2508 36.168 25.8988 36.044 25.5868 35.956C25.2748 35.868 24.9548 35.824 24.6268 35.824C24.4028 35.824 24.2108 35.86 24.0508 35.932C23.8908 36.004 23.7668 36.104 23.6788 36.232C23.5988 36.36 23.5588 36.512 23.5588 36.688C23.5588 36.888 23.6188 37.06 23.7388 37.204C23.8588 37.34 24.0388 37.472 24.2788 37.6C24.5188 37.728 24.8188 37.88 25.1788 38.056C25.6188 38.264 25.9908 38.48 26.2948 38.704C26.6068 38.928 26.8468 39.192 27.0148 39.496C27.1828 39.8 27.2668 40.176 27.2668 40.624Z" fill="white"/>
<path d="M31.3441 43.12C30.6961 43.12 30.1441 43.004 29.6881 42.772C29.2321 42.532 28.8841 42.164 28.6441 41.668C28.4041 41.172 28.2841 40.536 28.2841 39.76C28.2841 38.96 28.4201 38.308 28.6921 37.804C28.9641 37.3 29.3401 36.928 29.8201 36.688C30.3081 36.448 30.8681 36.328 31.5001 36.328C31.9481 36.328 32.3361 36.372 32.6641 36.46C33.0001 36.548 33.2921 36.652 33.5401 36.772L33.0121 38.152C32.7321 38.04 32.4681 37.948 32.2201 37.876C31.9801 37.804 31.7401 37.768 31.5001 37.768C31.1881 37.768 30.9281 37.844 30.7201 37.996C30.5121 38.14 30.3561 38.36 30.2521 38.656C30.1561 38.944 30.1081 39.308 30.1081 39.748C30.1081 40.18 30.1601 40.54 30.2641 40.828C30.3761 41.108 30.5361 41.32 30.7441 41.464C30.9521 41.6 31.2041 41.668 31.5001 41.668C31.8761 41.668 32.2081 41.62 32.4961 41.524C32.7841 41.42 33.0641 41.28 33.3361 41.104V42.628C33.0641 42.804 32.7761 42.928 32.4721 43C32.1761 43.08 31.8001 43.12 31.3441 43.12Z" fill="white"/>
<path d="M38.5042 36.328C38.5922 36.328 38.6962 36.332 38.8162 36.34C38.9362 36.348 39.0322 36.36 39.1042 36.376L38.9722 38.056C38.9162 38.04 38.8322 38.028 38.7202 38.02C38.6162 38.004 38.5242 37.996 38.4442 37.996C38.2122 37.996 37.9882 38.028 37.7722 38.092C37.5562 38.148 37.3602 38.24 37.1842 38.368C37.0162 38.496 36.8802 38.668 36.7762 38.884C36.6802 39.092 36.6322 39.352 36.6322 39.664V43H34.8442V36.448H36.2002L36.4642 37.552H36.5482C36.6762 37.328 36.8362 37.124 37.0282 36.94C37.2202 36.756 37.4402 36.608 37.6882 36.496C37.9442 36.384 38.2162 36.328 38.5042 36.328Z" fill="white"/>
<path d="M46.011 39.712C46.011 40.256 45.935 40.74 45.783 41.164C45.639 41.588 45.427 41.948 45.147 42.244C44.875 42.532 44.543 42.752 44.151 42.904C43.759 43.048 43.315 43.12 42.819 43.12C42.363 43.12 41.939 43.048 41.547 42.904C41.163 42.752 40.831 42.532 40.551 42.244C40.271 41.948 40.051 41.588 39.891 41.164C39.739 40.74 39.663 40.256 39.663 39.712C39.663 38.984 39.791 38.372 40.047 37.876C40.303 37.372 40.671 36.988 41.151 36.724C41.631 36.46 42.199 36.328 42.855 36.328C43.471 36.328 44.015 36.46 44.487 36.724C44.959 36.988 45.331 37.372 45.603 37.876C45.875 38.372 46.011 38.984 46.011 39.712ZM41.487 39.712C41.487 40.144 41.531 40.508 41.619 40.804C41.715 41.092 41.863 41.312 42.063 41.464C42.263 41.608 42.523 41.68 42.843 41.68C43.163 41.68 43.419 41.608 43.611 41.464C43.811 41.312 43.955 41.092 44.043 40.804C44.139 40.508 44.187 40.144 44.187 39.712C44.187 39.28 44.139 38.92 44.043 38.632C43.955 38.344 43.811 38.128 43.611 37.984C43.411 37.84 43.151 37.768 42.831 37.768C42.359 37.768 42.015 37.932 41.799 38.26C41.591 38.58 41.487 39.064 41.487 39.712Z" fill="white"/>
<path d="M49.2767 43H47.4887V33.88H49.2767V43Z" fill="white"/>
<path d="M52.933 43H51.145V33.88H52.933V43Z" fill="white"/>
<path fill-rule="evenodd" clip-rule="evenodd" d="M38 53C38.5523 53 39 53.4477 39 54V67.0858L45.2929 60.7929C45.6834 60.4024 46.3166 60.4024 46.7071 60.7929C47.0976 61.1834 47.0976 61.8166 46.7071 62.2071L38.7071 70.2071C38.3166 70.5976 37.6834 70.5976 37.2929 70.2071L29.2929 62.2071C28.9024 61.8166 28.9024 61.1834 29.2929 60.7929C29.6834 60.4024 30.3166 60.4024 30.7071 60.7929L37 67.0858V54C37 53.4477 37.4477 53 38 53Z" fill="#8BBEB2"/>
</svg>
