<svg width="184" height="41" viewBox="0 0 184 41" fill="none" xmlns="http://www.w3.org/2000/svg">
<path fill-rule="evenodd" clip-rule="evenodd" d="M105.906 2.56765C103.185 2.45138 99.3944 2.57644 94.2711 3.04044C72.8019 4.98505 50.265 13.9607 32.9035 22.6244C24.2683 26.9335 17.0003 31.1207 11.8911 34.2309C9.33755 35.7854 7.32579 37.0694 5.95492 37.9629C5.26955 38.4097 4.74455 38.7588 4.39231 38.9952C4.2162 39.1134 4.08328 39.2034 3.99513 39.2634C3.95105 39.2934 3.91816 39.3158 3.89665 39.3305L3.87296 39.3468L3.86648 39.3513C3.09029 39.8862 1.70989 39.9566 0.783277 39.5085C-0.143338 39.0604 -0.26528 38.2635 0.510913 37.7286L2.1887 38.5399C0.510913 37.7286 0.511367 37.7283 0.512003 37.7278L0.521788 37.7211L0.549948 37.7018C0.574449 37.685 0.610378 37.6605 0.657539 37.6284C0.751861 37.5642 0.891119 37.4699 1.07376 37.3473C1.43904 37.1022 1.97793 36.7439 2.678 36.2876C4.07804 35.375 6.12344 34.0697 8.71492 32.4921C13.8959 29.3382 21.2696 25.0897 30.0409 20.7127C47.4922 12.0042 70.8269 2.60605 93.5926 0.544013C98.8782 0.0653186 103.038 -0.0887794 106.229 0.0475784C109.36 0.181393 111.893 0.607937 113.56 1.48392C115.382 2.44148 115.78 3.7156 115.405 4.94761C115.048 6.12155 113.982 7.35104 112.651 8.53308C109.97 10.9136 105.721 13.5256 101.736 15.8057C99.7618 16.9348 97.8904 17.9627 96.2496 18.8639C94.4663 19.8435 92.9555 20.6733 91.8822 21.3206C91.6385 21.4675 91.3904 21.6171 91.1382 21.7691C87.1206 24.1909 82.0787 27.2302 77.7875 30.0581C75.5066 31.5613 73.467 32.9858 71.9185 34.2121C70.3125 35.484 69.4209 36.4013 69.1741 36.9237C69.0224 37.2451 68.9555 37.5038 68.955 37.6966C68.9547 37.8218 68.982 37.889 68.9982 37.9178C69.1334 37.9612 69.5755 38.044 70.7224 37.96C72.5285 37.8277 75.4133 37.3093 79.8201 36.1166C84.1903 34.9338 89.9233 33.1254 97.3866 30.4841C112.477 25.1433 122.822 22.5563 129.721 21.4787C133.169 20.9403 135.848 20.7639 137.878 20.8393C139.815 20.9112 141.568 21.2314 142.59 21.9556L142.594 21.9584C144.326 23.1932 144.048 24.7413 143.4 25.9828C142.733 27.2601 141.471 28.6094 140.274 29.8032C139.888 30.1885 139.511 30.5547 139.153 30.903C138.343 31.6917 137.627 32.3882 137.104 33.0047C136.825 33.3333 136.655 33.5806 136.563 33.7574C136.985 33.8476 137.768 33.8907 139.203 33.7108C141.134 33.4687 143.503 32.9134 146.11 32.2393C146.838 32.051 147.588 31.8526 148.345 31.6524C150.199 31.1618 152.093 30.6605 153.813 30.2704C155.041 29.992 156.261 29.7507 157.404 29.5985C158.523 29.4496 159.725 29.3637 160.858 29.4727C161.859 29.569 162.793 29.7752 163.551 30.148C164.328 30.5306 164.764 31.0116 164.974 31.4955C165.351 32.3672 165.012 33.3307 164.752 33.9999C164.673 34.2025 164.597 34.3884 164.526 34.5609C164.316 35.0752 164.154 35.4696 164.115 35.8278C164.104 35.9292 164.107 36.0047 164.117 36.0589C164.118 36.064 164.119 36.0688 164.12 36.0733C164.161 36.0818 164.213 36.0912 164.276 36.1011C164.452 36.1287 164.687 36.1552 164.987 36.1766C165.592 36.2196 166.36 36.235 167.264 36.2226C169.071 36.1977 171.229 36.0649 173.341 35.8927C175.442 35.7214 177.446 35.5152 178.928 35.3514C179.668 35.2696 180.275 35.1987 180.695 35.1484C180.801 35.1357 180.895 35.1244 180.976 35.1145C181.056 35.1048 181.124 35.0964 181.179 35.0897C181.234 35.0829 181.276 35.0777 181.303 35.0743L181.341 35.0696L181.342 35.0694C182.523 34.9199 183.69 35.3512 183.949 36.0328C184.208 36.7144 183.461 37.3882 182.28 37.5377L181.811 36.3036C182.28 37.5377 182.28 37.5377 182.279 37.5378L182.276 37.5382L182.23 37.544L182.177 37.5506C182.153 37.5535 182.125 37.557 182.093 37.5609C181.975 37.5755 181.803 37.5965 181.583 37.6228C181.144 37.6753 180.515 37.7488 179.751 37.8332C178.225 38.002 176.147 38.2159 173.953 38.3948C171.77 38.5729 169.421 38.7205 167.369 38.7488C166.344 38.763 165.344 38.7481 164.451 38.6845C163.6 38.6239 162.647 38.5065 161.848 38.2442C159.893 37.6025 159.662 36.4482 159.747 35.6698C159.811 35.074 160.096 34.3852 160.324 33.8312C160.381 33.6932 160.435 33.5636 160.481 33.4459C160.764 32.7179 160.818 32.3191 160.727 32.108C160.718 32.0871 160.71 32.0746 160.705 32.0685C160.692 32.0631 160.66 32.0508 160.596 32.0352C160.508 32.0139 160.363 31.9868 160.139 31.9653C159.819 31.9345 159.259 31.9448 158.388 32.0608C157.542 32.1735 156.546 32.3657 155.414 32.6224C153.812 32.9856 152.099 33.439 150.297 33.916C149.514 34.1232 148.714 34.3349 147.899 34.5456C145.302 35.217 142.558 35.8761 140.132 36.1802C137.846 36.4668 134.959 36.5497 133.011 35.3631C131.991 34.7421 132.031 33.9557 132.19 33.457C132.356 32.9365 132.749 32.393 133.173 31.8934C133.777 31.1812 134.638 30.3429 135.494 29.5102C135.831 29.1823 136.167 28.8552 136.486 28.5371C137.679 27.3471 138.703 26.2216 139.209 25.2532C139.717 24.2815 139.531 23.8115 139.223 23.5717C139.195 23.565 138.815 23.4063 137.597 23.361C136.206 23.3094 134.033 23.4231 130.864 23.9179C124.533 24.9068 114.592 27.3589 99.6744 32.6385C92.1332 35.3073 86.2488 37.1676 81.6782 38.4046C77.1442 39.6317 73.7649 40.2843 71.2734 40.4669C68.8426 40.6449 66.511 40.4088 65.2838 39.2616C64.2265 38.2732 64.5692 37.0674 64.9511 36.2589C65.4314 35.2421 66.7796 33.992 68.3813 32.7235C70.0405 31.4096 72.1766 29.9209 74.4949 28.3931C78.8529 25.5211 83.9576 22.444 87.9624 20.03C88.2197 19.8749 88.4724 19.7225 88.7201 19.5731C89.8128 18.9142 91.4683 18.0035 93.3564 16.9647C95.0173 16.051 96.8583 15.0383 98.6546 14.0107C102.627 11.7385 106.578 9.29001 108.981 7.15589C110.191 6.08059 110.888 5.1892 111.094 4.51051C111.283 3.88988 111.045 3.57959 110.614 3.35274C110.027 3.04432 108.686 2.68646 105.906 2.56765ZM136.479 33.9876C136.478 33.9877 136.478 33.9844 136.479 33.9773C136.48 33.9839 136.479 33.9875 136.479 33.9876ZM68.9482 37.8951C68.9501 37.8942 68.9633 37.899 68.9821 37.9124C68.9557 37.9028 68.9463 37.8961 68.9482 37.8951Z" fill="#8BBEB2"/>
</svg>
